<svg version="1.1" xmlns="http://www.w3.org/2000/svg" xmlns:xlink="http://www.w3.org/1999/xlink" width="812" height="763"><defs/><g><g transform="translate(-6,-62) scale(1,1)"><rect fill="#C0C0C0" stroke="none" x="47" y="79" width="307.2" height="15" opacity="0.2"/></g><g transform="translate(-6,-62) scale(1,1)"><rect fill="#C0C0C0" stroke="none" x="47" y="93" width="768" height="610" opacity="0.2"/></g><g transform="translate(-6,-62) scale(1,1)"><rect fill="#ffffff" stroke="none" x="40" y="87" width="768" height="609"/></g><g transform="translate(-6,-62) scale(1,1)"><path fill="none" stroke="#000000" d="M 40 87 L 808 87 L 808 696 L 40 696 L 40 87 Z Z" stroke-miterlimit="10"/></g><g transform="translate(-6,-62) scale(1,1)"><rect fill="#ffffff" stroke="none" x="40" y="72" width="307.2" height="15"/></g><g transform="translate(-6,-62) scale(1,1)"><path fill="none" stroke="#000000" d="M 40 72 L 347.2 72 L 347.2 87 L 40 87 L 40 72 Z Z" stroke-miterlimit="10"/></g><g transform="translate(-6,-62) scale(1,1)"><rect fill="#ffffff" stroke="none" x="40" y="86" width="768" height="610"/></g><g transform="translate(-6,-62) scale(1,1)"><path fill="none" stroke="#000000" d="M 40 86 L 808 86 L 808 696 L 40 696 L 40 86 Z Z" stroke-miterlimit="10"/></g><g transform="translate(-6,-62) scale(1,1)"><g><path fill="none" stroke="none"/><text fill="#000000" stroke="none" font-family="Arial" font-size="13px" font-style="normal" font-weight="bold" text-decoration="none" x="400" y="106.5">Statistic</text></g></g><g transform="translate(-6,-62) scale(1,1)"><rect fill="#C0C0C0" stroke="none" x="223" y="311" width="144" height="104" opacity="0.2"/></g><g transform="translate(-6,-62) scale(1,1)"><rect fill="#ffffff" stroke="none" x="216" y="304" width="144" height="104"/></g><g transform="translate(-6,-62) scale(1,1)"><path fill="none" stroke="#000000" d="M 216 304 L 360 304 L 360 408 L 216 408 L 216 304 Z Z" stroke-miterlimit="10"/></g><g transform="translate(-6,-62) scale(1,1)"><path fill="none" stroke="#000000" d="M 216 329 L 360 329" stroke-miterlimit="10"/></g><g transform="translate(-6,-62) scale(1,1)"><path fill="none" stroke="#000000" d="M 216 339 L 360 339" stroke-miterlimit="10"/></g><g transform="translate(-6,-62) scale(1,1)"><g><path fill="none" stroke="none"/><text fill="#000000" stroke="none" font-family="Arial" font-size="13px" font-style="italic" font-weight="bold" text-decoration="none" x="239.5" y="323.5">AbstractStatistic</text></g></g><g transform="translate(-6,-62) scale(1,1)"><rect fill="#C0C0C0" stroke="none" x="479" y="343" width="148.89599609375" height="44" opacity="0.2"/></g><g transform="translate(-6,-62) scale(1,1)"><rect fill="#ffffff" stroke="none" x="472" y="336" width="148.89599609375" height="44"/></g><g transform="translate(-6,-62) scale(1,1)"><path fill="none" stroke="#000000" d="M 472 336 L 620.89599609375 336 L 620.89599609375 380 L 472 380 L 472 336 Z Z" stroke-miterlimit="10"/></g><g transform="translate(-6,-62) scale(1,1)"><path fill="none" stroke="#000000" d="M 472 361 L 620.89599609375 361" stroke-miterlimit="10"/></g><g transform="translate(-6,-62) scale(1,1)"><path fill="none" stroke="#000000" d="M 472 371 L 620.89599609375 371" stroke-miterlimit="10"/></g><g transform="translate(-6,-62) scale(1,1)"><g><path fill="none" stroke="none"/><text fill="#000000" stroke="none" font-family="Arial" font-size="13px" font-style="normal" font-weight="bold" text-decoration="none" x="485.447998046875" y="355.5">ClickCounterStatistic</text></g></g><g transform="translate(-6,-62) scale(1,1)"><path fill="none" stroke="#000000" d="M 471 357 L 361 357" stroke-miterlimit="10"/></g><g transform="translate(-6,-62) scale(1,1)"><path fill="#FFFFFF" stroke="none" d="M 381.3253497152483 348.580964487968 L 361 357 L 381.3253497152483 365.419035512032"/></g><g transform="translate(-6,-62) scale(1,1)"><path fill="none" stroke="#000000" d="M 381.3253497152483 348.580964487968 L 361 357 L 381.3253497152483 365.419035512032 L 381.3253497152483 348.580964487968" stroke-miterlimit="10"/></g><g transform="translate(-6,-62) scale(1,1)"><rect fill="#C0C0C0" stroke="none" x="335" y="503" width="160.09326171875" height="57" opacity="0.2"/></g><g transform="translate(-6,-62) scale(1,1)"><rect fill="#ffffff" stroke="none" x="328" y="496" width="160.09326171875" height="57"/></g><g transform="translate(-6,-62) scale(1,1)"><path fill="none" stroke="#000000" d="M 328 496 L 488.09326171875 496 L 488.09326171875 553 L 328 553 L 328 496 Z Z" stroke-miterlimit="10"/></g><g transform="translate(-6,-62) scale(1,1)"><path fill="none" stroke="#000000" d="M 328 521 L 488.09326171875 521" stroke-miterlimit="10"/></g><g transform="translate(-6,-62) scale(1,1)"><path fill="none" stroke="#000000" d="M 328 544 L 488.09326171875 544" stroke-miterlimit="10"/></g><g transform="translate(-6,-62) scale(1,1)"><g><path fill="none" stroke="none"/><text fill="#000000" stroke="none" font-family="Arial" font-size="13px" font-style="italic" font-weight="bold" text-decoration="none" x="341.046630859375" y="515.5">AbstractPlayerStatistic</text></g></g><g transform="translate(-6,-62) scale(1,1)"><g><path fill="none" stroke="none"/><text fill="#000000" stroke="none" font-family="Arial" font-size="13px" font-style="normal" font-weight="normal" text-decoration="none" x="333" y="538.5">-Player: Player[1]</text></g></g><g transform="translate(-6,-62) scale(1,1)"><path fill="none" stroke="#000000" d="M 387 495 L 326 409" stroke-miterlimit="10"/></g><g transform="translate(-6,-62) scale(1,1)"><path fill="#FFFFFF" stroke="none" d="M 344.62609842023295 420.7076239109307 L 326 409 L 330.8921002409939 430.4491807589956"/></g><g transform="translate(-6,-62) scale(1,1)"><path fill="none" stroke="#000000" d="M 344.62609842023295 420.7076239109307 L 326 409 L 330.8921002409939 430.4491807589956 L 344.62609842023295 420.7076239109307" stroke-miterlimit="10"/></g><g transform="translate(-6,-62) scale(1,1)"><rect fill="#C0C0C0" stroke="none" x="23" y="735" width="222" height="87" opacity="0.2"/></g><g transform="translate(-6,-62) scale(1,1)"><rect fill="#ffffff" stroke="none" x="16" y="728" width="222" height="87"/></g><g transform="translate(-6,-62) scale(1,1)"><path fill="none" stroke="#000000" d="M 16 728 L 238 728 L 238 815 L 16 815 L 16 728 Z Z" stroke-miterlimit="10"/></g><g transform="translate(-6,-62) scale(1,1)"><path fill="none" stroke="#000000" d="M 16 768 L 238 768" stroke-miterlimit="10"/></g><g transform="translate(-6,-62) scale(1,1)"><path fill="none" stroke="#000000" d="M 16 806 L 238 806" stroke-miterlimit="10"/></g><g transform="translate(-6,-62) scale(1,1)"><g><path fill="none" stroke="none"/><text fill="#000000" stroke="none" font-family="Arial" font-size="13px" font-style="italic" font-weight="bold" text-decoration="none" x="109.5" y="747.5">Game</text></g></g><g transform="translate(-6,-62) scale(1,1)"><g><path fill="none" stroke="none"/><text fill="#000000" stroke="none" font-family="Arial" font-size="13px" font-style="normal" font-weight="normal" text-decoration="none" x="90.5" y="762.5">(from Game)</text></g></g><g transform="translate(-6,-62) scale(1,1)"><g><path fill="none" stroke="none"/><text fill="#000000" stroke="none" font-family="Arial" font-size="13px" font-style="normal" font-weight="normal" text-decoration="none" x="21" y="785.5">-ListPlayers: Player[2]</text></g></g><g transform="translate(-6,-62) scale(1,1)"><g><path fill="none" stroke="none"/><text fill="#000000" stroke="none" font-family="Arial" font-size="13px" font-style="normal" font-weight="normal" text-decoration="none" x="21" y="800.5">-ListStatistics: Statistic[1..*]</text></g></g><g transform="translate(-6,-62) scale(1,1)"><path fill="none" stroke="#000000" d="M 289 303 L 290 228" stroke-miterlimit="10"/></g><g transform="translate(-6,-62) scale(1,1)"><path fill="#FFFFFF" stroke="none" d="M 298.1473066763081 248.43578708839433 L 290 228 L 281.3107321701358 248.21129942831203"/></g><g transform="translate(-6,-62) scale(1,1)"><path fill="none" stroke="#000000" d="M 298.1473066763081 248.43578708839433 L 290 228 L 281.3107321701358 248.21129942831203 L 298.1473066763081 248.43578708839433" stroke-miterlimit="10"/></g><g transform="translate(-6,-62) scale(1,1)"><path fill="#C0C0C0" stroke="none" d="M 607.802978515625 762.5 C 607.802978515625 756.1487248 612.951703315625 751 619.302978515625 751 C 625.654253715625 751 630.802978515625 756.1487248 630.802978515625 762.5 C 630.802978515625 768.8512752 625.654253715625 774 619.302978515625 774 C 612.951703315625 774 607.802978515625 768.8512752 607.802978515625 762.5 Z" opacity="0.2"/></g><g transform="translate(-6,-62) scale(1,1)"><path fill="#ffffff" stroke="none" d="M 600.802978515625 755.5 C 600.802978515625 749.1487248 605.951703315625 744 612.302978515625 744 C 618.654253715625 744 623.802978515625 749.1487248 623.802978515625 755.5 C 623.802978515625 761.8512752 618.654253715625 767 612.302978515625 767 C 605.951703315625 767 600.802978515625 761.8512752 600.802978515625 755.5 Z"/></g><g transform="translate(-6,-62) scale(1,1)"><path fill="none" stroke="#000000" d="M 600.802978515625 755.5 C 600.802978515625 749.1487248 605.951703315625 744 612.302978515625 744 C 618.654253715625 744 623.802978515625 749.1487248 623.802978515625 755.5 C 623.802978515625 761.8512752 618.654253715625 767 612.302978515625 767 C 605.951703315625 767 600.802978515625 761.8512752 600.802978515625 755.5 Z" stroke-miterlimit="10"/></g><g transform="translate(-6,-62) scale(1,1)"><g><path fill="none" stroke="none"/><text fill="#000000" stroke="none" font-family="Arial" font-size="13px" font-style="normal" font-weight="bold" text-decoration="none" x="593.802978515625" y="786.5">Player</text></g></g><g transform="translate(-6,-62) scale(1,1)"><g><path fill="none" stroke="none"/><text fill="#000000" stroke="none" font-family="Arial" font-size="13px" font-style="normal" font-weight="normal" text-decoration="none" x="574.802978515625" y="801.5">(from Player)</text></g></g><g transform="translate(-6,-62) scale(1,1)"><path fill="none" stroke="#000000" d="M 567 775 L 239 772" stroke-miterlimit="10"/></g><g transform="translate(-6,-62) scale(1,1)"><path fill="#000000" stroke="none" d="M 249.20074987860724 767.8836057144517 L 239 772 L 249.12374972569975 776.3022890990023 L 260.9990798465477 772.2012110961574"/></g><g transform="translate(-6,-62) scale(1,1)"><path fill="none" stroke="#000000" d="M 249.20074987860724 767.8836057144517 L 239 772 L 249.12374972569975 776.3022890990023 L 260.9990798465477 772.2012110961574 L 249.20074987860724 767.8836057144517" stroke-miterlimit="10"/></g><g transform="translate(-6,-62) scale(1,1)"><g><path fill="none" stroke="none"/><text fill="#000000" stroke="none" font-family="Arial" font-size="13px" font-style="normal" font-weight="normal" text-decoration="none" x="541.5" y="768.5">2</text></g></g><g transform="translate(-6,-62) scale(1,1)"><path fill="none" stroke="#000000" d="M 586 743 L 432 554" stroke-miterlimit="10"/></g><g transform="translate(-6,-62) scale(1,1)"><path fill="#000000" stroke="none" d="M 441.68285225563756 559.2194225921547 L 432 554 L 435.1561213823979 564.5374995999796 L 445.8968049255692 571.0551696813803"/></g><g transform="translate(-6,-62) scale(1,1)"><path fill="none" stroke="#000000" d="M 441.68285225563756 559.2194225921547 L 432 554 L 435.1561213823979 564.5374995999796 L 445.8968049255692 571.0551696813803 L 441.68285225563756 559.2194225921547" stroke-miterlimit="10"/></g><g transform="translate(-6,-62) scale(1,1)"><g><path fill="none" stroke="none"/><text fill="#000000" stroke="none" font-family="Arial" font-size="13px" font-style="normal" font-weight="normal" text-decoration="none" x="578.5" y="724.5">1</text></g></g><g transform="translate(-6,-62) scale(1,1)"><path fill="#C0C0C0" stroke="none" d="M 118 354.5 C 118 348.1487248 123.1487248 343 129.5 343 C 135.8512752 343 141 348.1487248 141 354.5 C 141 360.8512752 135.8512752 366 129.5 366 C 123.1487248 366 118 360.8512752 118 354.5 Z" opacity="0.2"/></g><g transform="translate(-6,-62) scale(1,1)"><path fill="#ffffff" stroke="none" d="M 111 347.5 C 111 341.1487248 116.1487248 336 122.5 336 C 128.8512752 336 134 341.1487248 134 347.5 C 134 353.8512752 128.8512752 359 122.5 359 C 116.1487248 359 111 353.8512752 111 347.5 Z"/></g><g transform="translate(-6,-62) scale(1,1)"><path fill="none" stroke="#000000" d="M 111 347.5 C 111 341.1487248 116.1487248 336 122.5 336 C 128.8512752 336 134 341.1487248 134 347.5 C 134 353.8512752 128.8512752 359 122.5 359 C 116.1487248 359 111 353.8512752 111 347.5 Z" stroke-miterlimit="10"/></g><g transform="translate(-6,-62) scale(1,1)"><g><path fill="none" stroke="none"/><text fill="#000000" stroke="none" font-family="Arial" font-size="13px" font-style="normal" font-weight="bold" text-decoration="none" x="98.5" y="378.5">Statistic</text></g></g><g transform="translate(-6,-62) scale(1,1)"><rect fill="#C0C0C0" stroke="none" x="247" y="175" width="101.28857421875" height="59" opacity="0.2"/></g><g transform="translate(-6,-62) scale(1,1)"><rect fill="#ffffff" stroke="none" x="240" y="168" width="101.28857421875" height="59"/></g><g transform="translate(-6,-62) scale(1,1)"><path fill="none" stroke="#000000" d="M 240 168 L 341.28857421875 168 L 341.28857421875 227 L 240 227 L 240 168 Z Z" stroke-miterlimit="10"/></g><g transform="translate(-6,-62) scale(1,1)"><path fill="none" stroke="#000000" d="M 240 208 L 341.28857421875 208" stroke-miterlimit="10"/></g><g transform="translate(-6,-62) scale(1,1)"><path fill="none" stroke="#000000" d="M 240 218 L 341.28857421875 218" stroke-miterlimit="10"/></g><g transform="translate(-6,-62) scale(1,1)"><g><path fill="none" stroke="none"/><text fill="#000000" stroke="none" font-family="Arial" font-size="13px" font-style="italic" font-weight="bold" text-decoration="none" x="249.644287109375" y="187.5">StatisticEntity</text></g></g><g transform="translate(-6,-62) scale(1,1)"><g><path fill="none" stroke="none"/><text fill="#000000" stroke="none" font-family="Arial" font-size="13px" font-style="normal" font-weight="normal" text-decoration="none" x="247.644287109375" y="202.5">(from Statistic)</text></g></g><g transform="translate(-6,-62) scale(1,1)"><path fill="none" stroke="#000000" d="M 122 385 L 126 727" stroke-miterlimit="10"/></g><g transform="translate(-6,-62) scale(1,1)"><path fill="#000000" stroke="none" d="M 121.67191656803409 716.8872509273718 L 126 727 L 130.09037630140912 716.7887894100224 L 125.74270765593144 705.0015045821383"/></g><g transform="translate(-6,-62) scale(1,1)"><path fill="none" stroke="#000000" d="M 121.67191656803409 716.8872509273718 L 126 727 L 130.09037630140912 716.7887894100224 L 125.74270765593144 705.0015045821383 L 121.67191656803409 716.8872509273718" stroke-miterlimit="10"/></g><g transform="translate(-6,-62) scale(1,1)"><g><path fill="none" stroke="none"/><text fill="#000000" stroke="none" font-family="Arial" font-size="13px" font-style="normal" font-weight="normal" text-decoration="none" x="98.5" y="412.5">1..*</text></g></g><g transform="translate(-6,-62) scale(1,1)"><path fill="none" stroke="#000000" d="M 215 358 L 158 359" stroke-miterlimit="10"/></g><g transform="translate(-6,-62) scale(1,1)"><path fill="#FFFFFF" stroke="none" d="M 178.17454284558218 350.22572960458996 L 158 359 L 178.46990215000852 367.0612099568909"/></g><g transform="translate(-6,-62) scale(1,1)"><path fill="none" stroke="#000000" d="M 178.17454284558218 350.22572960458996 L 158 359 L 178.46990215000852 367.0612099568909 L 178.17454284558218 350.22572960458996" stroke-miterlimit="10"/></g></g></svg>