<svg version="1.1" xmlns="http://www.w3.org/2000/svg" xmlns:xlink="http://www.w3.org/1999/xlink" width="564" height="556"><defs/><g><g transform="translate(-134,-174) scale(1,1)"><rect fill="#C0C0C0" stroke="none" x="151" y="191" width="217.60000000000002" height="15" opacity="0.2"/></g><g transform="translate(-134,-174) scale(1,1)"><rect fill="#C0C0C0" stroke="none" x="151" y="205" width="544" height="522" opacity="0.2"/></g><g transform="translate(-134,-174) scale(1,1)"><rect fill="#ffffff" stroke="none" x="144" y="199" width="544" height="521"/></g><g transform="translate(-134,-174) scale(1,1)"><path fill="none" stroke="#000000" d="M 144 199 L 688 199 L 688 720 L 144 720 L 144 199 Z Z" stroke-miterlimit="10"/></g><g transform="translate(-134,-174) scale(1,1)"><rect fill="#ffffff" stroke="none" x="144" y="184" width="217.60000000000002" height="15"/></g><g transform="translate(-134,-174) scale(1,1)"><path fill="none" stroke="#000000" d="M 144 184 L 361.6 184 L 361.6 199 L 144 199 L 144 184 Z Z" stroke-miterlimit="10"/></g><g transform="translate(-134,-174) scale(1,1)"><rect fill="#ffffff" stroke="none" x="144" y="198" width="544" height="522"/></g><g transform="translate(-134,-174) scale(1,1)"><path fill="none" stroke="#000000" d="M 144 198 L 688 198 L 688 720 L 144 720 L 144 198 Z Z" stroke-miterlimit="10"/></g><g transform="translate(-134,-174) scale(1,1)"><g><path fill="none" stroke="none"/><text fill="#000000" stroke="none" font-family="Arial" font-size="13px" font-style="normal" font-weight="bold" text-decoration="none" x="399" y="218.5">Entity</text></g></g><g transform="translate(-134,-174) scale(1,1)"><rect fill="#C0C0C0" stroke="none" x="383" y="303" width="88" height="87" opacity="0.2"/></g><g transform="translate(-134,-174) scale(1,1)"><rect fill="#ffffff" stroke="none" x="376" y="296" width="88" height="87"/></g><g transform="translate(-134,-174) scale(1,1)"><path fill="none" stroke="#000000" d="M 376 296 L 464 296 L 464 383 L 376 383 L 376 296 Z Z" stroke-miterlimit="10"/></g><g transform="translate(-134,-174) scale(1,1)"><path fill="none" stroke="#000000" d="M 376 321 L 464 321" stroke-miterlimit="10"/></g><g transform="translate(-134,-174) scale(1,1)"><path fill="none" stroke="#000000" d="M 376 331 L 464 331" stroke-miterlimit="10"/></g><g transform="translate(-134,-174) scale(1,1)"><g><path fill="none" stroke="none"/><text fill="#000000" stroke="none" font-family="Arial" font-size="13px" font-style="italic" font-weight="bold" text-decoration="none" x="403" y="315.5">Entity</text></g></g><g transform="translate(-134,-174) scale(1,1)"><g><path fill="none" stroke="none"/><text fill="#000000" stroke="none" font-family="Arial" font-size="13px" font-style="normal" font-weight="normal" text-decoration="none" x="381" y="348.5">+save()</text></g></g><g transform="translate(-134,-174) scale(1,1)"><g><path fill="none" stroke="none"/><text fill="#000000" stroke="none" font-family="Arial" font-size="13px" font-style="normal" font-weight="normal" text-decoration="none" x="381" y="363.5">+delete()</text></g></g><g transform="translate(-134,-174) scale(1,1)"><rect fill="#C0C0C0" stroke="none" x="519" y="415" width="88.6376953125" height="44" opacity="0.2"/></g><g transform="translate(-134,-174) scale(1,1)"><rect fill="#ffffff" stroke="none" x="512" y="408" width="88.6376953125" height="44"/></g><g transform="translate(-134,-174) scale(1,1)"><path fill="none" stroke="#000000" d="M 512 408 L 600.6376953125 408 L 600.6376953125 452 L 512 452 L 512 408 Z Z" stroke-miterlimit="10"/></g><g transform="translate(-134,-174) scale(1,1)"><path fill="none" stroke="#000000" d="M 512 433 L 600.6376953125 433" stroke-miterlimit="10"/></g><g transform="translate(-134,-174) scale(1,1)"><path fill="none" stroke="#000000" d="M 512 443 L 600.6376953125 443" stroke-miterlimit="10"/></g><g transform="translate(-134,-174) scale(1,1)"><g><path fill="none" stroke="none"/><text fill="#000000" stroke="none" font-family="Arial" font-size="13px" font-style="italic" font-weight="bold" text-decoration="none" x="520.81884765625" y="427.5">PlayerEntity</text></g></g><g transform="translate(-134,-174) scale(1,1)"><rect fill="#C0C0C0" stroke="none" x="215" y="415" width="101.28857421875" height="44" opacity="0.2"/></g><g transform="translate(-134,-174) scale(1,1)"><rect fill="#ffffff" stroke="none" x="208" y="408" width="101.28857421875" height="44"/></g><g transform="translate(-134,-174) scale(1,1)"><path fill="none" stroke="#000000" d="M 208 408 L 309.28857421875 408 L 309.28857421875 452 L 208 452 L 208 408 Z Z" stroke-miterlimit="10"/></g><g transform="translate(-134,-174) scale(1,1)"><path fill="none" stroke="#000000" d="M 208 433 L 309.28857421875 433" stroke-miterlimit="10"/></g><g transform="translate(-134,-174) scale(1,1)"><path fill="none" stroke="#000000" d="M 208 443 L 309.28857421875 443" stroke-miterlimit="10"/></g><g transform="translate(-134,-174) scale(1,1)"><g><path fill="none" stroke="none"/><text fill="#000000" stroke="none" font-family="Arial" font-size="13px" font-style="italic" font-weight="bold" text-decoration="none" x="217.644287109375" y="427.5">StatisticEntity</text></g></g><g transform="translate(-134,-174) scale(1,1)"><path fill="none" stroke="#000000" d="M 299 407 L 375 364" stroke-miterlimit="10"/></g><g transform="translate(-134,-174) scale(1,1)"><path fill="#FFFFFF" stroke="none" d="M 361.45566679644514 381.3364078768089 L 375 364 L 353.1640185740088 366.6814017162237"/></g><g transform="translate(-134,-174) scale(1,1)"><path fill="none" stroke="#000000" d="M 361.45566679644514 381.3364078768089 L 375 364 L 353.1640185740088 366.6814017162237 L 361.45566679644514 381.3364078768089" stroke-miterlimit="10"/></g><g transform="translate(-134,-174) scale(1,1)"><path fill="none" stroke="#000000" d="M 522 407 L 465 369" stroke-miterlimit="10"/></g><g transform="translate(-134,-174) scale(1,1)"><path fill="#FFFFFF" stroke="none" d="M 486.58175386364326 373.2694144995677 L 465 369 L 477.24167256254066 387.2795364512216"/></g><g transform="translate(-134,-174) scale(1,1)"><path fill="none" stroke="#000000" d="M 486.58175386364326 373.2694144995677 L 465 369 L 477.24167256254066 387.2795364512216 L 486.58175386364326 373.2694144995677" stroke-miterlimit="10"/></g></g></svg>