<svg version="1.1" xmlns="http://www.w3.org/2000/svg" xmlns:xlink="http://www.w3.org/1999/xlink" width="445.63037109375" height="304"><defs/><g><g transform="translate(-278,-310) scale(1,1)"><path fill="#C0C0C0" stroke="none" d="M 491.421142578125 338.5 C 491.421142578125 332.1487248 496.569867378125 327 502.921142578125 327 C 509.272417778125 327 514.421142578125 332.1487248 514.421142578125 338.5 C 514.421142578125 344.8512752 509.272417778125 350 502.921142578125 350 C 496.569867378125 350 491.421142578125 344.8512752 491.421142578125 338.5 Z" opacity="0.2"/></g><g transform="translate(-278,-310) scale(1,1)"><path fill="#ffffff" stroke="none" d="M 484.421142578125 331.5 C 484.421142578125 325.1487248 489.569867378125 320 495.921142578125 320 C 502.272417778125 320 507.421142578125 325.1487248 507.421142578125 331.5 C 507.421142578125 337.8512752 502.272417778125 343 495.921142578125 343 C 489.569867378125 343 484.421142578125 337.8512752 484.421142578125 331.5 Z"/></g><g transform="translate(-278,-310) scale(1,1)"><path fill="none" stroke="#000000" d="M 484.421142578125 331.5 C 484.421142578125 325.1487248 489.569867378125 320 495.921142578125 320 C 502.272417778125 320 507.421142578125 325.1487248 507.421142578125 331.5 C 507.421142578125 337.8512752 502.272417778125 343 495.921142578125 343 C 489.569867378125 343 484.421142578125 337.8512752 484.421142578125 331.5 Z" stroke-miterlimit="10"/></g><g transform="translate(-278,-310) scale(1,1)"><g><path fill="none" stroke="none"/><text fill="#000000" stroke="none" font-family="Arial" font-size="13px" font-style="normal" font-weight="bold" text-decoration="none" x="459.921142578125" y="362.5">Configurable</text></g></g><g transform="translate(-278,-310) scale(1,1)"><rect fill="#C0C0C0" stroke="none" x="439" y="463" width="133.7314453125" height="85" opacity="0.2"/></g><g transform="translate(-278,-310) scale(1,1)"><rect fill="#ffffff" stroke="none" x="432" y="456" width="133.7314453125" height="85"/></g><g transform="translate(-278,-310) scale(1,1)"><path fill="none" stroke="#000000" d="M 432 456 L 565.7314453125 456 L 565.7314453125 541 L 432 541 L 432 456 Z Z" stroke-miterlimit="10"/></g><g transform="translate(-278,-310) scale(1,1)"><path fill="none" stroke="#000000" d="M 432 481 L 565.7314453125 481" stroke-miterlimit="10"/></g><g transform="translate(-278,-310) scale(1,1)"><path fill="none" stroke="#000000" d="M 432 504 L 565.7314453125 504" stroke-miterlimit="10"/></g><g transform="translate(-278,-310) scale(1,1)"><g><path fill="none" stroke="none"/><text fill="#000000" stroke="none" font-family="Arial" font-size="13px" font-style="italic" font-weight="bold" text-decoration="none" x="444.36572265625" y="475.5">AbstractParameter</text></g></g><g transform="translate(-278,-310) scale(1,1)"><g><path fill="none" stroke="none"/><text fill="#000000" stroke="none" font-family="Arial" font-size="13px" font-style="normal" font-weight="normal" text-decoration="none" x="437" y="498.5">+value: Object</text></g></g><g transform="translate(-278,-310) scale(1,1)"><g><path fill="none" stroke="none"/><text fill="#000000" stroke="none" font-family="Arial" font-size="13px" font-style="normal" font-weight="normal" text-decoration="none" x="437" y="521.5">+getValue()</text></g></g><g transform="translate(-278,-310) scale(1,1)"><g><path fill="none" stroke="none"/><text fill="#000000" stroke="none" font-family="Arial" font-size="13px" font-style="normal" font-weight="normal" text-decoration="none" x="437" y="536.5">+setValue()</text></g></g><g transform="translate(-278,-310) scale(1,1)"><rect fill="#C0C0C0" stroke="none" x="295" y="567" width="113.1904296875" height="44" opacity="0.2"/></g><g transform="translate(-278,-310) scale(1,1)"><rect fill="#ffffff" stroke="none" x="288" y="560" width="113.1904296875" height="44"/></g><g transform="translate(-278,-310) scale(1,1)"><path fill="none" stroke="#000000" d="M 288 560 L 401.1904296875 560 L 401.1904296875 604 L 288 604 L 288 560 Z Z" stroke-miterlimit="10"/></g><g transform="translate(-278,-310) scale(1,1)"><path fill="none" stroke="#000000" d="M 288 585 L 401.1904296875 585" stroke-miterlimit="10"/></g><g transform="translate(-278,-310) scale(1,1)"><path fill="none" stroke="#000000" d="M 288 595 L 401.1904296875 595" stroke-miterlimit="10"/></g><g transform="translate(-278,-310) scale(1,1)"><g><path fill="none" stroke="none"/><text fill="#000000" stroke="none" font-family="Arial" font-size="13px" font-style="normal" font-weight="bold" text-decoration="none" x="299.59521484375" y="579.5">ColorParameter</text></g></g><g transform="translate(-278,-310) scale(1,1)"><rect fill="#C0C0C0" stroke="none" x="615" y="567" width="105.63037109375" height="44" opacity="0.2"/></g><g transform="translate(-278,-310) scale(1,1)"><rect fill="#ffffff" stroke="none" x="608" y="560" width="105.63037109375" height="44"/></g><g transform="translate(-278,-310) scale(1,1)"><path fill="none" stroke="#000000" d="M 608 560 L 713.63037109375 560 L 713.63037109375 604 L 608 604 L 608 560 Z Z" stroke-miterlimit="10"/></g><g transform="translate(-278,-310) scale(1,1)"><path fill="none" stroke="#000000" d="M 608 585 L 713.63037109375 585" stroke-miterlimit="10"/></g><g transform="translate(-278,-310) scale(1,1)"><path fill="none" stroke="#000000" d="M 608 595 L 713.63037109375 595" stroke-miterlimit="10"/></g><g transform="translate(-278,-310) scale(1,1)"><g><path fill="none" stroke="none"/><text fill="#000000" stroke="none" font-family="Arial" font-size="13px" font-style="normal" font-weight="bold" text-decoration="none" x="618.815185546875" y="579.5">GridParameter</text></g></g><g transform="translate(-278,-310) scale(1,1)"><path fill="none" stroke="#000000" d="M 497 455 L 495 369" stroke-miterlimit="10"/></g><g transform="translate(-278,-310) scale(1,1)"><path fill="#FFFFFF" stroke="none" d="M 503.88931457166507 389.124117035189 L 495 369 L 487.0557949927509 389.5155942346986"/></g><g transform="translate(-278,-310) scale(1,1)"><path fill="none" stroke="#000000" d="M 503.88931457166507 389.124117035189 L 495 369 L 487.0557949927509 389.5155942346986 L 503.88931457166507 389.124117035189" stroke-miterlimit="10"/></g><g transform="translate(-278,-310) scale(1,1)"><path fill="none" stroke="#000000" d="M 386 559 L 431 535" stroke-miterlimit="10"/></g><g transform="translate(-278,-310) scale(1,1)"><path fill="#FFFFFF" stroke="none" d="M 417.02776696279597 551.9934312001451 L 431 535 L 409.1039688338247 537.1363097083239"/></g><g transform="translate(-278,-310) scale(1,1)"><path fill="none" stroke="#000000" d="M 417.02776696279597 551.9934312001451 L 431 535 L 409.1039688338247 537.1363097083239 L 417.02776696279597 551.9934312001451" stroke-miterlimit="10"/></g><g transform="translate(-278,-310) scale(1,1)"><path fill="none" stroke="#000000" d="M 616 559 L 567 534" stroke-miterlimit="10"/></g><g transform="translate(-278,-310) scale(1,1)"><path fill="#FFFFFF" stroke="none" d="M 588.9312484606638 535.7379128161768 L 567 534 L 581.2788445689928 550.7366244438521"/></g><g transform="translate(-278,-310) scale(1,1)"><path fill="none" stroke="#000000" d="M 588.9312484606638 535.7379128161768 L 567 534 L 581.2788445689928 550.7366244438521 L 588.9312484606638 535.7379128161768" stroke-miterlimit="10"/></g></g></svg>