<svg version="1.1" xmlns="http://www.w3.org/2000/svg" xmlns:xlink="http://www.w3.org/1999/xlink" width="812.60595703125" height="567"><defs/><g><g transform="translate(-30,-166) scale(1,1)"><rect fill="#C0C0C0" stroke="none" x="279" y="183" width="172.8" height="15" opacity="0.2"/></g><g transform="translate(-30,-166) scale(1,1)"><rect fill="#C0C0C0" stroke="none" x="279" y="197" width="432" height="306" opacity="0.2"/></g><g transform="translate(-30,-166) scale(1,1)"><rect fill="#ffffff" stroke="none" x="272" y="191" width="432" height="305"/></g><g transform="translate(-30,-166) scale(1,1)"><path fill="none" stroke="#000000" d="M 272 191 L 704 191 L 704 496 L 272 496 L 272 191 Z Z" stroke-miterlimit="10"/></g><g transform="translate(-30,-166) scale(1,1)"><rect fill="#ffffff" stroke="none" x="272" y="176" width="172.8" height="15"/></g><g transform="translate(-30,-166) scale(1,1)"><path fill="none" stroke="#000000" d="M 272 176 L 444.8 176 L 444.8 191 L 272 191 L 272 176 Z Z" stroke-miterlimit="10"/></g><g transform="translate(-30,-166) scale(1,1)"><rect fill="#ffffff" stroke="none" x="272" y="190" width="432" height="306"/></g><g transform="translate(-30,-166) scale(1,1)"><path fill="none" stroke="#000000" d="M 272 190 L 704 190 L 704 496 L 272 496 L 272 190 Z Z" stroke-miterlimit="10"/></g><g transform="translate(-30,-166) scale(1,1)"><g><path fill="none" stroke="none"/><text fill="#000000" stroke="none" font-family="Arial" font-size="13px" font-style="normal" font-weight="bold" text-decoration="none" x="465.5" y="210.5">Contest</text></g></g><g transform="translate(-30,-166) scale(1,1)"><rect fill="#C0C0C0" stroke="none" x="439" y="247" width="181" height="117" opacity="0.2"/></g><g transform="translate(-30,-166) scale(1,1)"><rect fill="#ffffff" stroke="none" x="432" y="240" width="181" height="117"/></g><g transform="translate(-30,-166) scale(1,1)"><path fill="none" stroke="#000000" d="M 432 240 L 613 240 L 613 357 L 432 357 L 432 240 Z Z" stroke-miterlimit="10"/></g><g transform="translate(-30,-166) scale(1,1)"><path fill="none" stroke="#000000" d="M 432 265 L 613 265" stroke-miterlimit="10"/></g><g transform="translate(-30,-166) scale(1,1)"><path fill="none" stroke="#000000" d="M 432 348 L 613 348" stroke-miterlimit="10"/></g><g transform="translate(-30,-166) scale(1,1)"><g><path fill="none" stroke="none"/><text fill="#000000" stroke="none" font-family="Arial" font-size="13px" font-style="italic" font-weight="bold" text-decoration="none" x="475.5" y="259.5">AbstractContest</text></g></g><g transform="translate(-30,-166) scale(1,1)"><g><path fill="none" stroke="none"/><text fill="#000000" stroke="none" font-family="Arial" font-size="13px" font-style="normal" font-weight="normal" text-decoration="none" x="437" y="282.5">-ListGames: Game[1..*]</text></g></g><g transform="translate(-30,-166) scale(1,1)"><g><path fill="none" stroke="none"/><text fill="#000000" stroke="none" font-family="Arial" font-size="13px" font-style="normal" font-weight="normal" text-decoration="none" x="437" y="297.5">-ListPlayers: Player[2]</text></g></g><g transform="translate(-30,-166) scale(1,1)"><g><path fill="none" stroke="none"/><text fill="#000000" stroke="none" font-family="Arial" font-size="13px" font-style="normal" font-weight="normal" text-decoration="none" x="437" y="312.5">-currentGame: Game</text></g></g><g transform="translate(-30,-166) scale(1,1)"><g><path fill="none" stroke="none"/><text fill="#000000" stroke="none" font-family="Arial" font-size="13px" font-style="normal" font-weight="normal" text-decoration="none" x="437" y="327.5">-isTraining: boolean = false</text></g></g><g transform="translate(-30,-166) scale(1,1)"><g><path fill="none" stroke="none"/><text fill="#000000" stroke="none" font-family="Arial" font-size="13px" font-style="normal" font-weight="normal" text-decoration="none" x="437" y="342.5">-gameFactory</text></g></g><g transform="translate(-30,-166) scale(1,1)"><path fill="none" stroke="#000000" d="M 376 295 L 431 296" stroke-miterlimit="10"/></g><g transform="translate(-30,-166) scale(1,1)"><path fill="#FFFFFF" stroke="none" d="M 410.52496093613485 304.04815353563754 L 431 296 L 410.83105709180165 287.2128649739613"/></g><g transform="translate(-30,-166) scale(1,1)"><path fill="none" stroke="#000000" d="M 410.52496093613485 304.04815353563754 L 431 296 L 410.83105709180165 287.2128649739613 L 410.52496093613485 304.04815353563754" stroke-miterlimit="10"/></g><g transform="translate(-30,-166) scale(1,1)"><rect fill="#C0C0C0" stroke="none" x="399" y="615" width="222" height="115" opacity="0.2"/></g><g transform="translate(-30,-166) scale(1,1)"><rect fill="#ffffff" stroke="none" x="392" y="608" width="222" height="115"/></g><g transform="translate(-30,-166) scale(1,1)"><path fill="none" stroke="#000000" d="M 392 608 L 614 608 L 614 723 L 392 723 L 392 608 Z Z" stroke-miterlimit="10"/></g><g transform="translate(-30,-166) scale(1,1)"><path fill="none" stroke="#000000" d="M 392 648 L 614 648" stroke-miterlimit="10"/></g><g transform="translate(-30,-166) scale(1,1)"><path fill="none" stroke="#000000" d="M 392 686 L 614 686" stroke-miterlimit="10"/></g><g transform="translate(-30,-166) scale(1,1)"><g><path fill="none" stroke="none"/><text fill="#000000" stroke="none" font-family="Arial" font-size="13px" font-style="italic" font-weight="bold" text-decoration="none" x="485.5" y="627.5">Game</text></g></g><g transform="translate(-30,-166) scale(1,1)"><g><path fill="none" stroke="none"/><text fill="#000000" stroke="none" font-family="Arial" font-size="13px" font-style="normal" font-weight="normal" text-decoration="none" x="466.5" y="642.5">(from Game)</text></g></g><g transform="translate(-30,-166) scale(1,1)"><g><path fill="none" stroke="none"/><text fill="#000000" stroke="none" font-family="Arial" font-size="13px" font-style="normal" font-weight="normal" text-decoration="none" x="397" y="665.5">-ListPlayers: Player[2]</text></g></g><g transform="translate(-30,-166) scale(1,1)"><g><path fill="none" stroke="none"/><text fill="#000000" stroke="none" font-family="Arial" font-size="13px" font-style="normal" font-weight="normal" text-decoration="none" x="397" y="680.5">-ListStatistics: Statistic[1..*]</text></g></g><g transform="translate(-30,-166) scale(1,1)"><g><path fill="none" stroke="none"/><text fill="#000000" stroke="none" font-family="Arial" font-size="13px" font-style="italic" font-weight="normal" text-decoration="none" x="397" y="703.5">+getNeededParams()</text><path fill="none" stroke="#000000" d="M 397 703.5 L 520 703.5" stroke-miterlimit="10"/></g></g><g transform="translate(-30,-166) scale(1,1)"><path fill="none" stroke="#000000" d="M 506 607 L 519 358" stroke-miterlimit="10"/></g><g transform="translate(-30,-166) scale(1,1)"><path fill="#000000" stroke="none" d="M 522.6739326113213 368.3683276938699 L 519 358 L 514.2663478411881 367.9293774849874 L 517.8529678272988 379.9700777694297"/></g><g transform="translate(-30,-166) scale(1,1)"><path fill="none" stroke="#000000" d="M 522.6739326113213 368.3683276938699 L 519 358 L 514.2663478411881 367.9293774849874 L 517.8529678272988 379.9700777694297 L 522.6739326113213 368.3683276938699" stroke-miterlimit="10"/></g><g transform="translate(-30,-166) scale(1,1)"><g><path fill="none" stroke="none"/><text fill="#000000" stroke="none" font-family="Arial" font-size="13px" font-style="normal" font-weight="normal" text-decoration="none" x="508.5" y="592.5">1..*</text></g></g><g transform="translate(-30,-166) scale(1,1)"><path fill="#C0C0C0" stroke="none" d="M 783.802978515625 634.5 C 783.802978515625 628.1487248 788.951703315625 623 795.302978515625 623 C 801.654253715625 623 806.802978515625 628.1487248 806.802978515625 634.5 C 806.802978515625 640.8512752 801.654253715625 646 795.302978515625 646 C 788.951703315625 646 783.802978515625 640.8512752 783.802978515625 634.5 Z" opacity="0.2"/></g><g transform="translate(-30,-166) scale(1,1)"><path fill="#ffffff" stroke="none" d="M 776.802978515625 627.5 C 776.802978515625 621.1487248 781.951703315625 616 788.302978515625 616 C 794.654253715625 616 799.802978515625 621.1487248 799.802978515625 627.5 C 799.802978515625 633.8512752 794.654253715625 639 788.302978515625 639 C 781.951703315625 639 776.802978515625 633.8512752 776.802978515625 627.5 Z"/></g><g transform="translate(-30,-166) scale(1,1)"><path fill="none" stroke="#000000" d="M 776.802978515625 627.5 C 776.802978515625 621.1487248 781.951703315625 616 788.302978515625 616 C 794.654253715625 616 799.802978515625 621.1487248 799.802978515625 627.5 C 799.802978515625 633.8512752 794.654253715625 639 788.302978515625 639 C 781.951703315625 639 776.802978515625 633.8512752 776.802978515625 627.5 Z" stroke-miterlimit="10"/></g><g transform="translate(-30,-166) scale(1,1)"><g><path fill="none" stroke="none"/><text fill="#000000" stroke="none" font-family="Arial" font-size="13px" font-style="normal" font-weight="bold" text-decoration="none" x="769.802978515625" y="658.5">Player</text></g></g><g transform="translate(-30,-166) scale(1,1)"><g><path fill="none" stroke="none"/><text fill="#000000" stroke="none" font-family="Arial" font-size="13px" font-style="normal" font-weight="normal" text-decoration="none" x="750.802978515625" y="673.5">(from Player)</text></g></g><g transform="translate(-30,-166) scale(1,1)"><path fill="none" stroke="#000000" d="M 743 650 L 615 658" stroke-miterlimit="10"/></g><g transform="translate(-30,-166) scale(1,1)"><path fill="#000000" stroke="none" d="M 624.8803013427749 653.1647497090678 L 615 658 L 625.405466349095 661.5673898101903 L 636.9571567266236 656.6276777045861"/></g><g transform="translate(-30,-166) scale(1,1)"><path fill="none" stroke="#000000" d="M 624.8803013427749 653.1647497090678 L 615 658 L 625.405466349095 661.5673898101903 L 636.9571567266236 656.6276777045861 L 624.8803013427749 653.1647497090678" stroke-miterlimit="10"/></g><g transform="translate(-30,-166) scale(1,1)"><g><path fill="none" stroke="none"/><text fill="#000000" stroke="none" font-family="Arial" font-size="13px" font-style="normal" font-weight="normal" text-decoration="none" x="716.5" y="644.5">2</text></g></g><g transform="translate(-30,-166) scale(1,1)"><path fill="none" stroke="#000000" d="M 764 615 L 568 358" stroke-miterlimit="10"/></g><g transform="translate(-30,-166) scale(1,1)"><path fill="#000000" stroke="none" d="M 577.5099965414879 363.52810688942327 L 568 358 L 570.8156211749115 368.63354491218195 L 581.3411524800164 375.493245853899"/></g><g transform="translate(-30,-166) scale(1,1)"><path fill="none" stroke="#000000" d="M 577.5099965414879 363.52810688942327 L 568 358 L 570.8156211749115 368.63354491218195 L 581.3411524800164 375.493245853899 L 577.5099965414879 363.52810688942327" stroke-miterlimit="10"/></g><g transform="translate(-30,-166) scale(1,1)"><g><path fill="none" stroke="none"/><text fill="#000000" stroke="none" font-family="Arial" font-size="13px" font-style="normal" font-weight="normal" text-decoration="none" x="756.5" y="596.5">2</text></g></g><g transform="translate(-30,-166) scale(1,1)"><rect fill="#C0C0C0" stroke="none" x="287" y="279" width="95.25830078125" height="44" opacity="0.2"/></g><g transform="translate(-30,-166) scale(1,1)"><rect fill="#ffffff" stroke="none" x="280" y="272" width="95.25830078125" height="44"/></g><g transform="translate(-30,-166) scale(1,1)"><path fill="none" stroke="#000000" d="M 280 272 L 375.25830078125 272 L 375.25830078125 316 L 280 316 L 280 272 Z Z" stroke-miterlimit="10"/></g><g transform="translate(-30,-166) scale(1,1)"><path fill="none" stroke="#000000" d="M 280 297 L 375.25830078125 297" stroke-miterlimit="10"/></g><g transform="translate(-30,-166) scale(1,1)"><path fill="none" stroke="#000000" d="M 280 307 L 375.25830078125 307" stroke-miterlimit="10"/></g><g transform="translate(-30,-166) scale(1,1)"><g><path fill="none" stroke="none"/><text fill="#000000" stroke="none" font-family="Arial" font-size="13px" font-style="normal" font-weight="bold" text-decoration="none" x="289.629150390625" y="291.5">LocalContest</text></g></g><g transform="translate(-30,-166) scale(1,1)"><path fill="none" stroke="#000000" d="M 481 607 L 416 432 L 475 358" stroke-miterlimit="10"/></g><g transform="translate(-30,-166) scale(1,1)"><rect fill="#C0C0C0" stroke="none" x="47" y="623" width="211" height="72" opacity="0.2"/></g><g transform="translate(-30,-166) scale(1,1)"><rect fill="#ffffff" stroke="none" x="40" y="616" width="211" height="72"/></g><g transform="translate(-30,-166) scale(1,1)"><path fill="none" stroke="#000000" d="M 40 616 L 251 616 L 251 688 L 40 688 L 40 616 Z Z" stroke-miterlimit="10"/></g><g transform="translate(-30,-166) scale(1,1)"><path fill="none" stroke="#000000" d="M 40 656 L 251 656" stroke-miterlimit="10"/></g><g transform="translate(-30,-166) scale(1,1)"><path fill="none" stroke="#000000" d="M 40 666 L 251 666" stroke-miterlimit="10"/></g><g transform="translate(-30,-166) scale(1,1)"><g><path fill="none" stroke="none"/><text fill="#000000" stroke="none" font-family="Arial" font-size="13px" font-style="normal" font-weight="bold" text-decoration="none" x="106" y="635.5">GameFactory</text></g></g><g transform="translate(-30,-166) scale(1,1)"><g><path fill="none" stroke="none"/><text fill="#000000" stroke="none" font-family="Arial" font-size="13px" font-style="normal" font-weight="normal" text-decoration="none" x="109" y="650.5">(from Game)</text></g></g><g transform="translate(-30,-166) scale(1,1)"><g><path fill="none" stroke="none"/><text fill="#000000" stroke="none" font-family="Arial" font-size="13px" font-style="normal" font-weight="normal" text-decoration="none" x="45" y="683.5">«Game»+getGame(EnumGames)()</text></g></g><g transform="translate(-30,-166) scale(1,1)"><path fill="none" stroke="#000000" d="M 252 656 L 391 661" stroke-miterlimit="10"/></g><g transform="translate(-30,-166) scale(1,1)"><path fill="none" stroke="#000000" d="M 184 615 L 458 358" stroke-miterlimit="10"/></g></g></svg>