<svg version="1.1" xmlns="http://www.w3.org/2000/svg" xmlns:xlink="http://www.w3.org/1999/xlink" width="580.60595703125" height="515"><defs/><g><g transform="translate(-126,-166) scale(1,1)"><rect fill="#C0C0C0" stroke="none" x="143" y="183" width="172.8" height="15" opacity="0.2"/></g><g transform="translate(-126,-166) scale(1,1)"><rect fill="#C0C0C0" stroke="none" x="143" y="197" width="432" height="306" opacity="0.2"/></g><g transform="translate(-126,-166) scale(1,1)"><rect fill="#ffffff" stroke="none" x="136" y="191" width="432" height="305"/></g><g transform="translate(-126,-166) scale(1,1)"><path fill="none" stroke="#000000" d="M 136 191 L 568 191 L 568 496 L 136 496 L 136 191 Z Z" stroke-miterlimit="10"/></g><g transform="translate(-126,-166) scale(1,1)"><rect fill="#ffffff" stroke="none" x="136" y="176" width="172.8" height="15"/></g><g transform="translate(-126,-166) scale(1,1)"><path fill="none" stroke="#000000" d="M 136 176 L 308.8 176 L 308.8 191 L 136 191 L 136 176 Z Z" stroke-miterlimit="10"/></g><g transform="translate(-126,-166) scale(1,1)"><rect fill="#ffffff" stroke="none" x="136" y="190" width="432" height="306"/></g><g transform="translate(-126,-166) scale(1,1)"><path fill="none" stroke="#000000" d="M 136 190 L 568 190 L 568 496 L 136 496 L 136 190 Z Z" stroke-miterlimit="10"/></g><g transform="translate(-126,-166) scale(1,1)"><g><path fill="none" stroke="none"/><text fill="#000000" stroke="none" font-family="Arial" font-size="13px" font-style="normal" font-weight="bold" text-decoration="none" x="329.5" y="210.5">Contest</text></g></g><g transform="translate(-126,-166) scale(1,1)"><rect fill="#C0C0C0" stroke="none" x="303" y="247" width="169" height="102" opacity="0.2"/></g><g transform="translate(-126,-166) scale(1,1)"><rect fill="#ffffff" stroke="none" x="296" y="240" width="169" height="102"/></g><g transform="translate(-126,-166) scale(1,1)"><path fill="none" stroke="#000000" d="M 296 240 L 465 240 L 465 342 L 296 342 L 296 240 Z Z" stroke-miterlimit="10"/></g><g transform="translate(-126,-166) scale(1,1)"><path fill="none" stroke="#000000" d="M 296 265 L 465 265" stroke-miterlimit="10"/></g><g transform="translate(-126,-166) scale(1,1)"><path fill="none" stroke="#000000" d="M 296 333 L 465 333" stroke-miterlimit="10"/></g><g transform="translate(-126,-166) scale(1,1)"><g><path fill="none" stroke="none"/><text fill="#000000" stroke="none" font-family="Arial" font-size="13px" font-style="italic" font-weight="bold" text-decoration="none" x="333.5" y="259.5">AbstractContest</text></g></g><g transform="translate(-126,-166) scale(1,1)"><g><path fill="none" stroke="none"/><text fill="#000000" stroke="none" font-family="Arial" font-size="13px" font-style="normal" font-weight="normal" text-decoration="none" x="301" y="282.5">-ListGames: Game[1..*]</text></g></g><g transform="translate(-126,-166) scale(1,1)"><g><path fill="none" stroke="none"/><text fill="#000000" stroke="none" font-family="Arial" font-size="13px" font-style="normal" font-weight="normal" text-decoration="none" x="301" y="297.5">-ListPlayers: Player[2]</text></g></g><g transform="translate(-126,-166) scale(1,1)"><g><path fill="none" stroke="none"/><text fill="#000000" stroke="none" font-family="Arial" font-size="13px" font-style="normal" font-weight="normal" text-decoration="none" x="301" y="312.5">-currentGame: Game</text></g></g><g transform="translate(-126,-166) scale(1,1)"><g><path fill="none" stroke="none"/><text fill="#000000" stroke="none" font-family="Arial" font-size="13px" font-style="normal" font-weight="normal" text-decoration="none" x="301" y="327.5">-isTraining</text></g></g><g transform="translate(-126,-166) scale(1,1)"><path fill="none" stroke="#000000" d="M 240 281 L 295 285" stroke-miterlimit="10"/></g><g transform="translate(-126,-166) scale(1,1)"><path fill="#FFFFFF" stroke="none" d="M 274.11751037762633 291.9225448479195 L 295 285 L 275.33887157493 275.1288283849937"/></g><g transform="translate(-126,-166) scale(1,1)"><path fill="none" stroke="#000000" d="M 274.11751037762633 291.9225448479195 L 295 285 L 275.33887157493 275.1288283849937 L 274.11751037762633 291.9225448479195" stroke-miterlimit="10"/></g><g transform="translate(-126,-166) scale(1,1)"><rect fill="#C0C0C0" stroke="none" x="199" y="591" width="222" height="87" opacity="0.2"/></g><g transform="translate(-126,-166) scale(1,1)"><rect fill="#ffffff" stroke="none" x="192" y="584" width="222" height="87"/></g><g transform="translate(-126,-166) scale(1,1)"><path fill="none" stroke="#000000" d="M 192 584 L 414 584 L 414 671 L 192 671 L 192 584 Z Z" stroke-miterlimit="10"/></g><g transform="translate(-126,-166) scale(1,1)"><path fill="none" stroke="#000000" d="M 192 624 L 414 624" stroke-miterlimit="10"/></g><g transform="translate(-126,-166) scale(1,1)"><path fill="none" stroke="#000000" d="M 192 662 L 414 662" stroke-miterlimit="10"/></g><g transform="translate(-126,-166) scale(1,1)"><g><path fill="none" stroke="none"/><text fill="#000000" stroke="none" font-family="Arial" font-size="13px" font-style="italic" font-weight="bold" text-decoration="none" x="285.5" y="603.5">Game</text></g></g><g transform="translate(-126,-166) scale(1,1)"><g><path fill="none" stroke="none"/><text fill="#000000" stroke="none" font-family="Arial" font-size="13px" font-style="normal" font-weight="normal" text-decoration="none" x="266.5" y="618.5">(from Game)</text></g></g><g transform="translate(-126,-166) scale(1,1)"><g><path fill="none" stroke="none"/><text fill="#000000" stroke="none" font-family="Arial" font-size="13px" font-style="normal" font-weight="normal" text-decoration="none" x="197" y="641.5">-ListPlayers: Player[2]</text></g></g><g transform="translate(-126,-166) scale(1,1)"><g><path fill="none" stroke="none"/><text fill="#000000" stroke="none" font-family="Arial" font-size="13px" font-style="normal" font-weight="normal" text-decoration="none" x="197" y="656.5">-ListStatistics: Statistic[1..*]</text></g></g><g transform="translate(-126,-166) scale(1,1)"><path fill="none" stroke="#000000" d="M 313 583 L 368 343" stroke-miterlimit="10"/></g><g transform="translate(-126,-166) scale(1,1)"><path fill="#000000" stroke="none" d="M 369.83305375448595 353.8461935227602 L 368 343 L 361.6267477500711 351.9655817300818 L 363.0857245607533 364.44411100762204"/></g><g transform="translate(-126,-166) scale(1,1)"><path fill="none" stroke="#000000" d="M 369.83305375448595 353.8461935227602 L 368 343 L 361.6267477500711 351.9655817300818 L 363.0857245607533 364.44411100762204 L 369.83305375448595 353.8461935227602" stroke-miterlimit="10"/></g><g transform="translate(-126,-166) scale(1,1)"><g><path fill="none" stroke="none"/><text fill="#000000" stroke="none" font-family="Arial" font-size="13px" font-style="normal" font-weight="normal" text-decoration="none" x="319.5" y="570.5">1..*</text></g></g><g transform="translate(-126,-166) scale(1,1)"><path fill="#C0C0C0" stroke="none" d="M 647.802978515625 610.5 C 647.802978515625 604.1487248 652.951703315625 599 659.302978515625 599 C 665.654253715625 599 670.802978515625 604.1487248 670.802978515625 610.5 C 670.802978515625 616.8512752 665.654253715625 622 659.302978515625 622 C 652.951703315625 622 647.802978515625 616.8512752 647.802978515625 610.5 Z" opacity="0.2"/></g><g transform="translate(-126,-166) scale(1,1)"><path fill="#ffffff" stroke="none" d="M 640.802978515625 603.5 C 640.802978515625 597.1487248 645.951703315625 592 652.302978515625 592 C 658.654253715625 592 663.802978515625 597.1487248 663.802978515625 603.5 C 663.802978515625 609.8512752 658.654253715625 615 652.302978515625 615 C 645.951703315625 615 640.802978515625 609.8512752 640.802978515625 603.5 Z"/></g><g transform="translate(-126,-166) scale(1,1)"><path fill="none" stroke="#000000" d="M 640.802978515625 603.5 C 640.802978515625 597.1487248 645.951703315625 592 652.302978515625 592 C 658.654253715625 592 663.802978515625 597.1487248 663.802978515625 603.5 C 663.802978515625 609.8512752 658.654253715625 615 652.302978515625 615 C 645.951703315625 615 640.802978515625 609.8512752 640.802978515625 603.5 Z" stroke-miterlimit="10"/></g><g transform="translate(-126,-166) scale(1,1)"><g><path fill="none" stroke="none"/><text fill="#000000" stroke="none" font-family="Arial" font-size="13px" font-style="normal" font-weight="bold" text-decoration="none" x="633.802978515625" y="634.5">Player</text></g></g><g transform="translate(-126,-166) scale(1,1)"><g><path fill="none" stroke="none"/><text fill="#000000" stroke="none" font-family="Arial" font-size="13px" font-style="normal" font-weight="normal" text-decoration="none" x="614.802978515625" y="649.5">(from Player)</text></g></g><g transform="translate(-126,-166) scale(1,1)"><path fill="none" stroke="#000000" d="M 607 624 L 415 626" stroke-miterlimit="10"/></g><g transform="translate(-126,-166) scale(1,1)"><path fill="#000000" stroke="none" d="M 425.1182767775747 621.6848551527912 L 415 626 L 425.20597030660895 630.1034339400819 L 436.9988065207358 625.770845765409"/></g><g transform="translate(-126,-166) scale(1,1)"><path fill="none" stroke="#000000" d="M 425.1182767775747 621.6848551527912 L 415 626 L 425.20597030660895 630.1034339400819 L 436.9988065207358 625.770845765409 L 425.1182767775747 621.6848551527912" stroke-miterlimit="10"/></g><g transform="translate(-126,-166) scale(1,1)"><g><path fill="none" stroke="none"/><text fill="#000000" stroke="none" font-family="Arial" font-size="13px" font-style="normal" font-weight="normal" text-decoration="none" x="581.5" y="617.5">2</text></g></g><g transform="translate(-126,-166) scale(1,1)"><path fill="none" stroke="#000000" d="M 626 591 L 423 343" stroke-miterlimit="10"/></g><g transform="translate(-126,-166) scale(1,1)"><path fill="#000000" stroke="none" d="M 432.69451809956377 348.1977224644291 L 423 343 L 426.1797146872138 353.5304042898607 L 436.9349691531566 360.0240017240534"/></g><g transform="translate(-126,-166) scale(1,1)"><path fill="none" stroke="#000000" d="M 432.69451809956377 348.1977224644291 L 423 343 L 426.1797146872138 353.5304042898607 L 436.9349691531566 360.0240017240534 L 432.69451809956377 348.1977224644291" stroke-miterlimit="10"/></g><g transform="translate(-126,-166) scale(1,1)"><g><path fill="none" stroke="none"/><text fill="#000000" stroke="none" font-family="Arial" font-size="13px" font-style="normal" font-weight="normal" text-decoration="none" x="617.5" y="572.5">2</text></g></g><g transform="translate(-126,-166) scale(1,1)"><rect fill="#C0C0C0" stroke="none" x="151" y="263" width="95.25830078125" height="44" opacity="0.2"/></g><g transform="translate(-126,-166) scale(1,1)"><rect fill="#ffffff" stroke="none" x="144" y="256" width="95.25830078125" height="44"/></g><g transform="translate(-126,-166) scale(1,1)"><path fill="none" stroke="#000000" d="M 144 256 L 239.25830078125 256 L 239.25830078125 300 L 144 300 L 144 256 Z Z" stroke-miterlimit="10"/></g><g transform="translate(-126,-166) scale(1,1)"><path fill="none" stroke="#000000" d="M 144 281 L 239.25830078125 281" stroke-miterlimit="10"/></g><g transform="translate(-126,-166) scale(1,1)"><path fill="none" stroke="#000000" d="M 144 291 L 239.25830078125 291" stroke-miterlimit="10"/></g><g transform="translate(-126,-166) scale(1,1)"><g><path fill="none" stroke="none"/><text fill="#000000" stroke="none" font-family="Arial" font-size="13px" font-style="normal" font-weight="bold" text-decoration="none" x="153.629150390625" y="275.5">LocalContest</text></g></g><g transform="translate(-126,-166) scale(1,1)"><path fill="none" stroke="#000000" d="M 298 583 L 280 432 L 343 343" stroke-miterlimit="10"/></g></g></svg>