<svg version="1.1" xmlns="http://www.w3.org/2000/svg" xmlns:xlink="http://www.w3.org/1999/xlink" width="732" height="627"><defs/><g><g transform="translate(-38,-22) scale(1,1)"><rect fill="#C0C0C0" stroke="none" x="55" y="39" width="284.8" height="15" opacity="0.2"/></g><g transform="translate(-38,-22) scale(1,1)"><rect fill="#C0C0C0" stroke="none" x="55" y="53" width="712" height="434" opacity="0.2"/></g><g transform="translate(-38,-22) scale(1,1)"><rect fill="#ffffff" stroke="none" x="48" y="47" width="712" height="433"/></g><g transform="translate(-38,-22) scale(1,1)"><path fill="none" stroke="#000000" d="M 48 47 L 760 47 L 760 480 L 48 480 L 48 47 Z Z" stroke-miterlimit="10"/></g><g transform="translate(-38,-22) scale(1,1)"><rect fill="#ffffff" stroke="none" x="48" y="32" width="284.8" height="15"/></g><g transform="translate(-38,-22) scale(1,1)"><path fill="none" stroke="#000000" d="M 48 32 L 332.8 32 L 332.8 47 L 48 47 L 48 32 Z Z" stroke-miterlimit="10"/></g><g transform="translate(-38,-22) scale(1,1)"><rect fill="#ffffff" stroke="none" x="48" y="46" width="712" height="434"/></g><g transform="translate(-38,-22) scale(1,1)"><path fill="none" stroke="#000000" d="M 48 46 L 760 46 L 760 480 L 48 480 L 48 46 Z Z" stroke-miterlimit="10"/></g><g transform="translate(-38,-22) scale(1,1)"><g><path fill="none" stroke="none"/><text fill="#000000" stroke="none" font-family="Arial" font-size="13px" font-style="normal" font-weight="bold" text-decoration="none" x="386.5" y="66.5">Game</text></g></g><g transform="translate(-38,-22) scale(1,1)"><rect fill="#C0C0C0" stroke="none" x="367" y="183" width="222" height="100" opacity="0.2"/></g><g transform="translate(-38,-22) scale(1,1)"><rect fill="#ffffff" stroke="none" x="360" y="176" width="222" height="100"/></g><g transform="translate(-38,-22) scale(1,1)"><path fill="none" stroke="#000000" d="M 360 176 L 582 176 L 582 276 L 360 276 L 360 176 Z Z" stroke-miterlimit="10"/></g><g transform="translate(-38,-22) scale(1,1)"><path fill="none" stroke="#000000" d="M 360 201 L 582 201" stroke-miterlimit="10"/></g><g transform="translate(-38,-22) scale(1,1)"><path fill="none" stroke="#000000" d="M 360 239 L 582 239" stroke-miterlimit="10"/></g><g transform="translate(-38,-22) scale(1,1)"><g><path fill="none" stroke="none"/><text fill="#000000" stroke="none" font-family="Arial" font-size="13px" font-style="italic" font-weight="bold" text-decoration="none" x="453.5" y="195.5">Game</text></g></g><g transform="translate(-38,-22) scale(1,1)"><g><path fill="none" stroke="none"/><text fill="#000000" stroke="none" font-family="Arial" font-size="13px" font-style="normal" font-weight="normal" text-decoration="none" x="365" y="218.5">-ListPlayers: Player[2]</text></g></g><g transform="translate(-38,-22) scale(1,1)"><g><path fill="none" stroke="none"/><text fill="#000000" stroke="none" font-family="Arial" font-size="13px" font-style="normal" font-weight="normal" text-decoration="none" x="365" y="233.5">-ListStatistics: Statistic[1..*]</text></g></g><g transform="translate(-38,-22) scale(1,1)"><g><path fill="none" stroke="none"/><text fill="#000000" stroke="none" font-family="Arial" font-size="13px" font-style="italic" font-weight="normal" text-decoration="none" x="365" y="256.5">+getNeededParams()</text><path fill="none" stroke="#000000" d="M 365 256.5 L 488 256.5" stroke-miterlimit="10"/></g></g><g transform="translate(-38,-22) scale(1,1)"><rect fill="#C0C0C0" stroke="none" x="647" y="199" width="64.6943359375" height="44" opacity="0.2"/></g><g transform="translate(-38,-22) scale(1,1)"><rect fill="#ffffff" stroke="none" x="640" y="192" width="64.6943359375" height="44"/></g><g transform="translate(-38,-22) scale(1,1)"><path fill="none" stroke="#000000" d="M 640 192 L 704.6943359375 192 L 704.6943359375 236 L 640 236 L 640 192 Z Z" stroke-miterlimit="10"/></g><g transform="translate(-38,-22) scale(1,1)"><path fill="none" stroke="#000000" d="M 640 217 L 704.6943359375 217" stroke-miterlimit="10"/></g><g transform="translate(-38,-22) scale(1,1)"><path fill="none" stroke="#000000" d="M 640 227 L 704.6943359375 227" stroke-miterlimit="10"/></g><g transform="translate(-38,-22) scale(1,1)"><g><path fill="none" stroke="none"/><text fill="#000000" stroke="none" font-family="Arial" font-size="13px" font-style="normal" font-weight="bold" text-decoration="none" x="649.34716796875" y="211.5">Morpion</text></g></g><g transform="translate(-38,-22) scale(1,1)"><path fill="none" stroke="#000000" d="M 639 216 L 583 219" stroke-miterlimit="10"/></g><g transform="translate(-38,-22) scale(1,1)"><path fill="#FFFFFF" stroke="none" d="M 602.8458725439581 209.5057205134369 L 583 219 L 603.7466204618257 226.31968164696755"/></g><g transform="translate(-38,-22) scale(1,1)"><path fill="none" stroke="#000000" d="M 602.8458725439581 209.5057205134369 L 583 219 L 603.7466204618257 226.31968164696755 L 602.8458725439581 209.5057205134369" stroke-miterlimit="10"/></g><g transform="translate(-38,-22) scale(1,1)"><path fill="#C0C0C0" stroke="none" d="M 463.802978515625 538.5 C 463.802978515625 532.1487248 468.951703315625 527 475.302978515625 527 C 481.654253715625 527 486.802978515625 532.1487248 486.802978515625 538.5 C 486.802978515625 544.8512752 481.654253715625 550 475.302978515625 550 C 468.951703315625 550 463.802978515625 544.8512752 463.802978515625 538.5 Z" opacity="0.2"/></g><g transform="translate(-38,-22) scale(1,1)"><path fill="#ffffff" stroke="none" d="M 456.802978515625 531.5 C 456.802978515625 525.1487248 461.951703315625 520 468.302978515625 520 C 474.654253715625 520 479.802978515625 525.1487248 479.802978515625 531.5 C 479.802978515625 537.8512752 474.654253715625 543 468.302978515625 543 C 461.951703315625 543 456.802978515625 537.8512752 456.802978515625 531.5 Z"/></g><g transform="translate(-38,-22) scale(1,1)"><path fill="none" stroke="#000000" d="M 456.802978515625 531.5 C 456.802978515625 525.1487248 461.951703315625 520 468.302978515625 520 C 474.654253715625 520 479.802978515625 525.1487248 479.802978515625 531.5 C 479.802978515625 537.8512752 474.654253715625 543 468.302978515625 543 C 461.951703315625 543 456.802978515625 537.8512752 456.802978515625 531.5 Z" stroke-miterlimit="10"/></g><g transform="translate(-38,-22) scale(1,1)"><g><path fill="none" stroke="none"/><text fill="#000000" stroke="none" font-family="Arial" font-size="13px" font-style="normal" font-weight="bold" text-decoration="none" x="449.802978515625" y="562.5">Player</text></g></g><g transform="translate(-38,-22) scale(1,1)"><g><path fill="none" stroke="none"/><text fill="#000000" stroke="none" font-family="Arial" font-size="13px" font-style="normal" font-weight="normal" text-decoration="none" x="430.802978515625" y="577.5">(from Player)</text></g></g><g transform="translate(-38,-22) scale(1,1)"><path fill="none" stroke="#000000" d="M 468 519 L 471 277" stroke-miterlimit="10"/></g><g transform="translate(-38,-22) scale(1,1)"><path fill="#000000" stroke="none" d="M 475.0832204448222 287.21407415280436 L 471 277 L 466.6648317686231 287.10971396260356 L 470.7272936809523 298.99830973651274"/></g><g transform="translate(-38,-22) scale(1,1)"><path fill="none" stroke="#000000" d="M 475.0832204448222 287.21407415280436 L 471 277 L 466.6648317686231 287.10971396260356 L 470.7272936809523 298.99830973651274 L 475.0832204448222 287.21407415280436" stroke-miterlimit="10"/></g><g transform="translate(-38,-22) scale(1,1)"><g><path fill="none" stroke="none"/><text fill="#000000" stroke="none" font-family="Arial" font-size="13px" font-style="normal" font-weight="normal" text-decoration="none" x="476.5" y="503.5">2</text></g></g><g transform="translate(-38,-22) scale(1,1)"><rect fill="#C0C0C0" stroke="none" x="151" y="111" width="102.5517578125" height="47" opacity="0.2"/></g><g transform="translate(-38,-22) scale(1,1)"><rect fill="#ffffff" stroke="none" x="144" y="104" width="102.5517578125" height="47"/></g><g transform="translate(-38,-22) scale(1,1)"><path fill="none" stroke="#000000" d="M 144 104 L 246.5517578125 104 L 246.5517578125 151 L 144 151 L 144 104 Z Z" stroke-miterlimit="10"/></g><g transform="translate(-38,-22) scale(1,1)"><path fill="none" stroke="#000000" d="M 144 142 L 246.5517578125 142" stroke-miterlimit="10"/></g><g transform="translate(-38,-22) scale(1,1)"><g><path fill="none" stroke="none"/><text fill="#000000" stroke="none" font-family="Arial" font-size="13px" font-style="normal" font-weight="normal" text-decoration="none" x="152.77587890625" y="121.5">«enumeration»</text></g></g><g transform="translate(-38,-22) scale(1,1)"><g><path fill="none" stroke="none"/><text fill="#000000" stroke="none" font-family="Arial" font-size="13px" font-style="normal" font-weight="bold" text-decoration="none" x="157.27587890625" y="136.5">EnumGames</text></g></g><g transform="translate(-38,-22) scale(1,1)"><rect fill="#C0C0C0" stroke="none" x="63" y="319" width="284" height="57" opacity="0.2"/></g><g transform="translate(-38,-22) scale(1,1)"><rect fill="#ffffff" stroke="none" x="56" y="312" width="284" height="57"/></g><g transform="translate(-38,-22) scale(1,1)"><path fill="none" stroke="#000000" d="M 56 312 L 340 312 L 340 369 L 56 369 L 56 312 Z Z" stroke-miterlimit="10"/></g><g transform="translate(-38,-22) scale(1,1)"><path fill="none" stroke="#000000" d="M 56 337 L 340 337" stroke-miterlimit="10"/></g><g transform="translate(-38,-22) scale(1,1)"><path fill="none" stroke="#000000" d="M 56 347 L 340 347" stroke-miterlimit="10"/></g><g transform="translate(-38,-22) scale(1,1)"><g><path fill="none" stroke="none"/><text fill="#000000" stroke="none" font-family="Arial" font-size="13px" font-style="normal" font-weight="bold" text-decoration="none" x="158.5" y="331.5">GameFactory</text></g></g><g transform="translate(-38,-22) scale(1,1)"><g><path fill="none" stroke="none"/><text fill="#000000" stroke="none" font-family="Arial" font-size="13px" font-style="normal" font-weight="normal" text-decoration="none" x="61" y="364.5">«Game»+getGame(EnumGames)()</text></g></g><g transform="translate(-38,-22) scale(1,1)"><path fill="none" stroke="#000000" d="M 267 311 L 359 273" stroke-miterlimit="10"/></g><g transform="translate(-38,-22) scale(1,1)"><path fill="none" stroke="#000000" d="M 198 311 L 195 152" stroke-miterlimit="10"/></g><g transform="translate(-38,-22) scale(1,1)"><path fill="#C0C0C0" stroke="none" d="M 196.898193359375 594.5 C 196.898193359375 588.1487248 202.046918159375 583 208.398193359375 583 C 214.749468559375 583 219.898193359375 588.1487248 219.898193359375 594.5 C 219.898193359375 600.8512752 214.749468559375 606 208.398193359375 606 C 202.046918159375 606 196.898193359375 600.8512752 196.898193359375 594.5 Z" opacity="0.2"/></g><g transform="translate(-38,-22) scale(1,1)"><path fill="#ffffff" stroke="none" d="M 189.898193359375 587.5 C 189.898193359375 581.1487248 195.046918159375 576 201.398193359375 576 C 207.749468559375 576 212.898193359375 581.1487248 212.898193359375 587.5 C 212.898193359375 593.8512752 207.749468559375 599 201.398193359375 599 C 195.046918159375 599 189.898193359375 593.8512752 189.898193359375 587.5 Z"/></g><g transform="translate(-38,-22) scale(1,1)"><path fill="none" stroke="#000000" d="M 189.898193359375 587.5 C 189.898193359375 581.1487248 195.046918159375 576 201.398193359375 576 C 207.749468559375 576 212.898193359375 581.1487248 212.898193359375 587.5 C 212.898193359375 593.8512752 207.749468559375 599 201.398193359375 599 C 195.046918159375 599 189.898193359375 593.8512752 189.898193359375 587.5 Z" stroke-miterlimit="10"/></g><g transform="translate(-38,-22) scale(1,1)"><g><path fill="none" stroke="none"/><text fill="#000000" stroke="none" font-family="Arial" font-size="13px" font-style="normal" font-weight="bold" text-decoration="none" x="165.398193359375" y="618.5">Configurable</text></g></g><g transform="translate(-38,-22) scale(1,1)"><g><path fill="none" stroke="none"/><text fill="#000000" stroke="none" font-family="Arial" font-size="13px" font-style="normal" font-weight="normal" text-decoration="none" x="152.398193359375" y="633.5">(from Parameter)</text></g></g><g transform="translate(-38,-22) scale(1,1)"><path fill="none" stroke="#000000" d="M 198 370 L 201 575" stroke-miterlimit="10"/></g><g transform="translate(-38,-22) scale(1,1)"><path fill="none" stroke="#000000" d="M 224 575 L 435 277" stroke-miterlimit="10"/></g></g></svg>