<svg version="1.1" xmlns="http://www.w3.org/2000/svg" xmlns:xlink="http://www.w3.org/1999/xlink" width="548" height="571"><defs/><g><g transform="translate(-62,-22) scale(1,1)"><rect fill="#C0C0C0" stroke="none" x="79" y="39" width="211.2" height="15" opacity="0.2"/></g><g transform="translate(-62,-22) scale(1,1)"><rect fill="#C0C0C0" stroke="none" x="79" y="53" width="528" height="394" opacity="0.2"/></g><g transform="translate(-62,-22) scale(1,1)"><rect fill="#ffffff" stroke="none" x="72" y="47" width="528" height="393"/></g><g transform="translate(-62,-22) scale(1,1)"><path fill="none" stroke="#000000" d="M 72 47 L 600 47 L 600 440 L 72 440 L 72 47 Z Z" stroke-miterlimit="10"/></g><g transform="translate(-62,-22) scale(1,1)"><rect fill="#ffffff" stroke="none" x="72" y="32" width="211.2" height="15"/></g><g transform="translate(-62,-22) scale(1,1)"><path fill="none" stroke="#000000" d="M 72 32 L 283.2 32 L 283.2 47 L 72 47 L 72 32 Z Z" stroke-miterlimit="10"/></g><g transform="translate(-62,-22) scale(1,1)"><rect fill="#ffffff" stroke="none" x="72" y="46" width="528" height="394"/></g><g transform="translate(-62,-22) scale(1,1)"><path fill="none" stroke="#000000" d="M 72 46 L 600 46 L 600 440 L 72 440 L 72 46 Z Z" stroke-miterlimit="10"/></g><g transform="translate(-62,-22) scale(1,1)"><g><path fill="none" stroke="none"/><text fill="#000000" stroke="none" font-family="Arial" font-size="13px" font-style="normal" font-weight="bold" text-decoration="none" x="318.5" y="66.5">Game</text></g></g><g transform="translate(-62,-22) scale(1,1)"><rect fill="#C0C0C0" stroke="none" x="207" y="183" width="222" height="72" opacity="0.2"/></g><g transform="translate(-62,-22) scale(1,1)"><rect fill="#ffffff" stroke="none" x="200" y="176" width="222" height="72"/></g><g transform="translate(-62,-22) scale(1,1)"><path fill="none" stroke="#000000" d="M 200 176 L 422 176 L 422 248 L 200 248 L 200 176 Z Z" stroke-miterlimit="10"/></g><g transform="translate(-62,-22) scale(1,1)"><path fill="none" stroke="#000000" d="M 200 201 L 422 201" stroke-miterlimit="10"/></g><g transform="translate(-62,-22) scale(1,1)"><path fill="none" stroke="#000000" d="M 200 239 L 422 239" stroke-miterlimit="10"/></g><g transform="translate(-62,-22) scale(1,1)"><g><path fill="none" stroke="none"/><text fill="#000000" stroke="none" font-family="Arial" font-size="13px" font-style="italic" font-weight="bold" text-decoration="none" x="293.5" y="195.5">Game</text></g></g><g transform="translate(-62,-22) scale(1,1)"><g><path fill="none" stroke="none"/><text fill="#000000" stroke="none" font-family="Arial" font-size="13px" font-style="normal" font-weight="normal" text-decoration="none" x="205" y="218.5">-ListPlayers: Player[2]</text></g></g><g transform="translate(-62,-22) scale(1,1)"><g><path fill="none" stroke="none"/><text fill="#000000" stroke="none" font-family="Arial" font-size="13px" font-style="normal" font-weight="normal" text-decoration="none" x="205" y="233.5">-ListStatistics: Statistic[1..*]</text></g></g><g transform="translate(-62,-22) scale(1,1)"><rect fill="#C0C0C0" stroke="none" x="487" y="199" width="64.6943359375" height="44" opacity="0.2"/></g><g transform="translate(-62,-22) scale(1,1)"><rect fill="#ffffff" stroke="none" x="480" y="192" width="64.6943359375" height="44"/></g><g transform="translate(-62,-22) scale(1,1)"><path fill="none" stroke="#000000" d="M 480 192 L 544.6943359375 192 L 544.6943359375 236 L 480 236 L 480 192 Z Z" stroke-miterlimit="10"/></g><g transform="translate(-62,-22) scale(1,1)"><path fill="none" stroke="#000000" d="M 480 217 L 544.6943359375 217" stroke-miterlimit="10"/></g><g transform="translate(-62,-22) scale(1,1)"><path fill="none" stroke="#000000" d="M 480 227 L 544.6943359375 227" stroke-miterlimit="10"/></g><g transform="translate(-62,-22) scale(1,1)"><g><path fill="none" stroke="none"/><text fill="#000000" stroke="none" font-family="Arial" font-size="13px" font-style="normal" font-weight="bold" text-decoration="none" x="489.34716796875" y="211.5">Morpion</text></g></g><g transform="translate(-62,-22) scale(1,1)"><path fill="none" stroke="#000000" d="M 479 214 L 423 213" stroke-miterlimit="10"/></g><g transform="translate(-62,-22) scale(1,1)"><path fill="#FFFFFF" stroke="none" d="M 443.4724257967757 204.94520130633222 L 423 213 L 443.1717938856236 221.78058833085348"/></g><g transform="translate(-62,-22) scale(1,1)"><path fill="none" stroke="#000000" d="M 443.4724257967757 204.94520130633222 L 423 213 L 443.1717938856236 221.78058833085348 L 443.4724257967757 204.94520130633222" stroke-miterlimit="10"/></g><g transform="translate(-62,-22) scale(1,1)"><path fill="#C0C0C0" stroke="none" d="M 303.802978515625 538.5 C 303.802978515625 532.1487248 308.951703315625 527 315.302978515625 527 C 321.654253715625 527 326.802978515625 532.1487248 326.802978515625 538.5 C 326.802978515625 544.8512752 321.654253715625 550 315.302978515625 550 C 308.951703315625 550 303.802978515625 544.8512752 303.802978515625 538.5 Z" opacity="0.2"/></g><g transform="translate(-62,-22) scale(1,1)"><path fill="#ffffff" stroke="none" d="M 296.802978515625 531.5 C 296.802978515625 525.1487248 301.951703315625 520 308.302978515625 520 C 314.654253715625 520 319.802978515625 525.1487248 319.802978515625 531.5 C 319.802978515625 537.8512752 314.654253715625 543 308.302978515625 543 C 301.951703315625 543 296.802978515625 537.8512752 296.802978515625 531.5 Z"/></g><g transform="translate(-62,-22) scale(1,1)"><path fill="none" stroke="#000000" d="M 296.802978515625 531.5 C 296.802978515625 525.1487248 301.951703315625 520 308.302978515625 520 C 314.654253715625 520 319.802978515625 525.1487248 319.802978515625 531.5 C 319.802978515625 537.8512752 314.654253715625 543 308.302978515625 543 C 301.951703315625 543 296.802978515625 537.8512752 296.802978515625 531.5 Z" stroke-miterlimit="10"/></g><g transform="translate(-62,-22) scale(1,1)"><g><path fill="none" stroke="none"/><text fill="#000000" stroke="none" font-family="Arial" font-size="13px" font-style="normal" font-weight="bold" text-decoration="none" x="289.802978515625" y="562.5">Player</text></g></g><g transform="translate(-62,-22) scale(1,1)"><g><path fill="none" stroke="none"/><text fill="#000000" stroke="none" font-family="Arial" font-size="13px" font-style="normal" font-weight="normal" text-decoration="none" x="270.802978515625" y="577.5">(from Player)</text></g></g><g transform="translate(-62,-22) scale(1,1)"><path fill="none" stroke="#000000" d="M 308 519 L 311 249" stroke-miterlimit="10"/></g><g transform="translate(-62,-22) scale(1,1)"><path fill="#000000" stroke="none" d="M 315.0963462934084 259.2088171226876 L 311 249 L 306.67783042681174 259.1152780575032 L 310.7555706433218 270.99864210103874"/></g><g transform="translate(-62,-22) scale(1,1)"><path fill="none" stroke="#000000" d="M 315.0963462934084 259.2088171226876 L 311 249 L 306.67783042681174 259.1152780575032 L 310.7555706433218 270.99864210103874 L 315.0963462934084 259.2088171226876" stroke-miterlimit="10"/></g><g transform="translate(-62,-22) scale(1,1)"><g><path fill="none" stroke="none"/><text fill="#000000" stroke="none" font-family="Arial" font-size="13px" font-style="normal" font-weight="normal" text-decoration="none" x="316.5" y="503.5">2</text></g></g></g></svg>