<svg version="1.1" xmlns="http://www.w3.org/2000/svg" xmlns:xlink="http://www.w3.org/1999/xlink" width="1110.49365234375" height="810"><defs/><g><g transform="translate(-46,-198) scale(1,1)"><rect fill="#C0C0C0" stroke="none" x="71" y="631" width="87.08251953125" height="59" opacity="0.2"/></g><g transform="translate(-46,-198) scale(1,1)"><rect fill="#ffffff" stroke="none" x="64" y="624" width="87.08251953125" height="59"/></g><g transform="translate(-46,-198) scale(1,1)"><path fill="none" stroke="#000000" d="M 64 624 L 151.08251953125 624 L 151.08251953125 683 L 64 683 L 64 624 Z Z" stroke-miterlimit="10"/></g><g transform="translate(-46,-198) scale(1,1)"><path fill="none" stroke="#000000" d="M 64 664 L 151.08251953125 664" stroke-miterlimit="10"/></g><g transform="translate(-46,-198) scale(1,1)"><path fill="none" stroke="#000000" d="M 64 674 L 151.08251953125 674" stroke-miterlimit="10"/></g><g transform="translate(-46,-198) scale(1,1)"><g><path fill="none" stroke="none"/><text fill="#000000" stroke="none" font-family="Arial" font-size="13px" font-style="normal" font-weight="bold" text-decoration="none" x="84.541259765625" y="643.5">Morpion</text></g></g><g transform="translate(-46,-198) scale(1,1)"><g><path fill="none" stroke="none"/><text fill="#000000" stroke="none" font-family="Arial" font-size="13px" font-style="normal" font-weight="normal" text-decoration="none" x="71.041259765625" y="658.5">(from Game)</text></g></g><g transform="translate(-46,-198) scale(1,1)"><rect fill="#C0C0C0" stroke="none" x="223" y="615" width="222" height="100" opacity="0.2"/></g><g transform="translate(-46,-198) scale(1,1)"><rect fill="#ffffff" stroke="none" x="216" y="608" width="222" height="100"/></g><g transform="translate(-46,-198) scale(1,1)"><path fill="none" stroke="#000000" d="M 216 608 L 438 608 L 438 708 L 216 708 L 216 608 Z Z" stroke-miterlimit="10"/></g><g transform="translate(-46,-198) scale(1,1)"><path fill="none" stroke="#000000" d="M 216 648 L 438 648" stroke-miterlimit="10"/></g><g transform="translate(-46,-198) scale(1,1)"><path fill="none" stroke="#000000" d="M 216 686 L 438 686" stroke-miterlimit="10"/></g><g transform="translate(-46,-198) scale(1,1)"><g><path fill="none" stroke="none"/><text fill="#000000" stroke="none" font-family="Arial" font-size="13px" font-style="italic" font-weight="bold" text-decoration="none" x="309.5" y="627.5">Game</text></g></g><g transform="translate(-46,-198) scale(1,1)"><g><path fill="none" stroke="none"/><text fill="#000000" stroke="none" font-family="Arial" font-size="13px" font-style="normal" font-weight="normal" text-decoration="none" x="290.5" y="642.5">(from Game)</text></g></g><g transform="translate(-46,-198) scale(1,1)"><g><path fill="none" stroke="none"/><text fill="#000000" stroke="none" font-family="Arial" font-size="13px" font-style="normal" font-weight="normal" text-decoration="none" x="221" y="665.5">-ListPlayers: Player[2]</text></g></g><g transform="translate(-46,-198) scale(1,1)"><g><path fill="none" stroke="none"/><text fill="#000000" stroke="none" font-family="Arial" font-size="13px" font-style="normal" font-weight="normal" text-decoration="none" x="221" y="680.5">-ListStatistics: Statistic[1..*]</text></g></g><g transform="translate(-46,-198) scale(1,1)"><g><path fill="none" stroke="none"/><text fill="#000000" stroke="none" font-family="Arial" font-size="13px" font-style="italic" font-weight="normal" text-decoration="none" x="221" y="703.5">+getNeededParams()</text><path fill="none" stroke="#000000" d="M 221 703.5 L 344 703.5" stroke-miterlimit="10"/></g></g><g transform="translate(-46,-198) scale(1,1)"><path fill="none" stroke="#000000" d="M 152 654 L 215 655" stroke-miterlimit="10"/></g><g transform="translate(-46,-198) scale(1,1)"><path fill="#FFFFFF" stroke="none" d="M 194.54359166110262 663.0953911500488 L 215 655 L 194.8108289662875 646.2594409234017"/></g><g transform="translate(-46,-198) scale(1,1)"><path fill="none" stroke="#000000" d="M 194.54359166110262 663.0953911500488 L 215 655 L 194.8108289662875 646.2594409234017 L 194.54359166110262 663.0953911500488" stroke-miterlimit="10"/></g><g transform="translate(-46,-198) scale(1,1)"><rect fill="#C0C0C0" stroke="none" x="511" y="415" width="119.14453125" height="59" opacity="0.2"/></g><g transform="translate(-46,-198) scale(1,1)"><rect fill="#ffffff" stroke="none" x="504" y="408" width="119.14453125" height="59"/></g><g transform="translate(-46,-198) scale(1,1)"><path fill="none" stroke="#000000" d="M 504 408 L 623.14453125 408 L 623.14453125 467 L 504 467 L 504 408 Z Z" stroke-miterlimit="10"/></g><g transform="translate(-46,-198) scale(1,1)"><path fill="none" stroke="#000000" d="M 504 448 L 623.14453125 448" stroke-miterlimit="10"/></g><g transform="translate(-46,-198) scale(1,1)"><path fill="none" stroke="#000000" d="M 504 458 L 623.14453125 458" stroke-miterlimit="10"/></g><g transform="translate(-46,-198) scale(1,1)"><g><path fill="none" stroke="none"/><text fill="#000000" stroke="none" font-family="Arial" font-size="13px" font-style="italic" font-weight="bold" text-decoration="none" x="515.072265625" y="427.5">AbstractStatistic</text></g></g><g transform="translate(-46,-198) scale(1,1)"><g><path fill="none" stroke="none"/><text fill="#000000" stroke="none" font-family="Arial" font-size="13px" font-style="normal" font-weight="normal" text-decoration="none" x="520.572265625" y="442.5">(from Statistic)</text></g></g><g transform="translate(-46,-198) scale(1,1)"><rect fill="#C0C0C0" stroke="none" x="815" y="415" width="160.09326171875" height="72" opacity="0.2"/></g><g transform="translate(-46,-198) scale(1,1)"><rect fill="#ffffff" stroke="none" x="808" y="408" width="160.09326171875" height="72"/></g><g transform="translate(-46,-198) scale(1,1)"><path fill="none" stroke="#000000" d="M 808 408 L 968.09326171875 408 L 968.09326171875 480 L 808 480 L 808 408 Z Z" stroke-miterlimit="10"/></g><g transform="translate(-46,-198) scale(1,1)"><path fill="none" stroke="#000000" d="M 808 448 L 968.09326171875 448" stroke-miterlimit="10"/></g><g transform="translate(-46,-198) scale(1,1)"><path fill="none" stroke="#000000" d="M 808 471 L 968.09326171875 471" stroke-miterlimit="10"/></g><g transform="translate(-46,-198) scale(1,1)"><g><path fill="none" stroke="none"/><text fill="#000000" stroke="none" font-family="Arial" font-size="13px" font-style="italic" font-weight="bold" text-decoration="none" x="821.046630859375" y="427.5">AbstractPlayerStatistic</text></g></g><g transform="translate(-46,-198) scale(1,1)"><g><path fill="none" stroke="none"/><text fill="#000000" stroke="none" font-family="Arial" font-size="13px" font-style="normal" font-weight="normal" text-decoration="none" x="845.046630859375" y="442.5">(from Statistic)</text></g></g><g transform="translate(-46,-198) scale(1,1)"><g><path fill="none" stroke="none"/><text fill="#000000" stroke="none" font-family="Arial" font-size="13px" font-style="normal" font-weight="normal" text-decoration="none" x="813" y="465.5">-Player: Player[1]</text></g></g><g transform="translate(-46,-198) scale(1,1)"><path fill="none" stroke="#000000" d="M 807 442 L 624 438" stroke-miterlimit="10"/></g><g transform="translate(-46,-198) scale(1,1)"><path fill="#FFFFFF" stroke="none" d="M 644.5044747349576 430.02713879190895 L 624 438 L 644.1365173554572 446.8611889040564"/></g><g transform="translate(-46,-198) scale(1,1)"><path fill="none" stroke="#000000" d="M 644.5044747349576 430.02713879190895 L 624 438 L 644.1365173554572 446.8611889040564 L 644.5044747349576 430.02713879190895" stroke-miterlimit="10"/></g><g transform="translate(-46,-198) scale(1,1)"><rect fill="#C0C0C0" stroke="none" x="519" y="231" width="101.28857421875" height="59" opacity="0.2"/></g><g transform="translate(-46,-198) scale(1,1)"><rect fill="#ffffff" stroke="none" x="512" y="224" width="101.28857421875" height="59"/></g><g transform="translate(-46,-198) scale(1,1)"><path fill="none" stroke="#000000" d="M 512 224 L 613.28857421875 224 L 613.28857421875 283 L 512 283 L 512 224 Z Z" stroke-miterlimit="10"/></g><g transform="translate(-46,-198) scale(1,1)"><path fill="none" stroke="#000000" d="M 512 264 L 613.28857421875 264" stroke-miterlimit="10"/></g><g transform="translate(-46,-198) scale(1,1)"><path fill="none" stroke="#000000" d="M 512 274 L 613.28857421875 274" stroke-miterlimit="10"/></g><g transform="translate(-46,-198) scale(1,1)"><g><path fill="none" stroke="none"/><text fill="#000000" stroke="none" font-family="Arial" font-size="13px" font-style="italic" font-weight="bold" text-decoration="none" x="521.644287109375" y="243.5">StatisticEntity</text></g></g><g transform="translate(-46,-198) scale(1,1)"><g><path fill="none" stroke="none"/><text fill="#000000" stroke="none" font-family="Arial" font-size="13px" font-style="normal" font-weight="normal" text-decoration="none" x="519.644287109375" y="258.5">(from Statistic)</text></g></g><g transform="translate(-46,-198) scale(1,1)"><path fill="none" stroke="#000000" d="M 563 407 L 562 284" stroke-miterlimit="10"/></g><g transform="translate(-46,-198) scale(1,1)"><path fill="#FFFFFF" stroke="none" d="M 570.5839985688508 304.25623283263616 L 562 284 L 553.7464840004794 304.39312319498066"/></g><g transform="translate(-46,-198) scale(1,1)"><path fill="none" stroke="#000000" d="M 570.5839985688508 304.25623283263616 L 562 284 L 553.7464840004794 304.39312319498066 L 570.5839985688508 304.25623283263616" stroke-miterlimit="10"/></g><g transform="translate(-46,-198) scale(1,1)"><path fill="#C0C0C0" stroke="none" d="M 879.802978515625 650.5 C 879.802978515625 644.1487248 884.951703315625 639 891.302978515625 639 C 897.654253715625 639 902.802978515625 644.1487248 902.802978515625 650.5 C 902.802978515625 656.8512752 897.654253715625 662 891.302978515625 662 C 884.951703315625 662 879.802978515625 656.8512752 879.802978515625 650.5 Z" opacity="0.2"/></g><g transform="translate(-46,-198) scale(1,1)"><path fill="#ffffff" stroke="none" d="M 872.802978515625 643.5 C 872.802978515625 637.1487248 877.951703315625 632 884.302978515625 632 C 890.654253715625 632 895.802978515625 637.1487248 895.802978515625 643.5 C 895.802978515625 649.8512752 890.654253715625 655 884.302978515625 655 C 877.951703315625 655 872.802978515625 649.8512752 872.802978515625 643.5 Z"/></g><g transform="translate(-46,-198) scale(1,1)"><path fill="none" stroke="#000000" d="M 872.802978515625 643.5 C 872.802978515625 637.1487248 877.951703315625 632 884.302978515625 632 C 890.654253715625 632 895.802978515625 637.1487248 895.802978515625 643.5 C 895.802978515625 649.8512752 890.654253715625 655 884.302978515625 655 C 877.951703315625 655 872.802978515625 649.8512752 872.802978515625 643.5 Z" stroke-miterlimit="10"/></g><g transform="translate(-46,-198) scale(1,1)"><g><path fill="none" stroke="none"/><text fill="#000000" stroke="none" font-family="Arial" font-size="13px" font-style="normal" font-weight="bold" text-decoration="none" x="865.802978515625" y="674.5">Player</text></g></g><g transform="translate(-46,-198) scale(1,1)"><g><path fill="none" stroke="none"/><text fill="#000000" stroke="none" font-family="Arial" font-size="13px" font-style="normal" font-weight="normal" text-decoration="none" x="846.802978515625" y="689.5">(from Player)</text></g></g><g transform="translate(-46,-198) scale(1,1)"><path fill="none" stroke="#000000" d="M 839 663 L 439 659" stroke-miterlimit="10"/></g><g transform="translate(-46,-198) scale(1,1)"><path fill="#000000" stroke="none" d="M 449.20425983494727 654.8923143717074 L 439 659 L 449.120073689029 663.3109289635324 L 460.99890008249315 659.219989000825"/></g><g transform="translate(-46,-198) scale(1,1)"><path fill="none" stroke="#000000" d="M 449.20425983494727 654.8923143717074 L 439 659 L 449.120073689029 663.3109289635324 L 460.99890008249315 659.219989000825 L 449.20425983494727 654.8923143717074" stroke-miterlimit="10"/></g><g transform="translate(-46,-198) scale(1,1)"><g><path fill="none" stroke="none"/><text fill="#000000" stroke="none" font-family="Arial" font-size="13px" font-style="normal" font-weight="normal" text-decoration="none" x="813.5" y="656.5">2</text></g></g><g transform="translate(-46,-198) scale(1,1)"><path fill="none" stroke="#000000" d="M 885 631 L 887 481" stroke-miterlimit="10"/></g><g transform="translate(-46,-198) scale(1,1)"><path fill="#000000" stroke="none" d="M 891.073653338154 491.2178935441972 L 887 481 L 882.6553660850678 491.105649714156 L 886.7066927372647 502.9980447051466"/></g><g transform="translate(-46,-198) scale(1,1)"><path fill="none" stroke="#000000" d="M 891.073653338154 491.2178935441972 L 887 481 L 882.6553660850678 491.105649714156 L 886.7066927372647 502.9980447051466 L 891.073653338154 491.2178935441972" stroke-miterlimit="10"/></g><g transform="translate(-46,-198) scale(1,1)"><g><path fill="none" stroke="none"/><text fill="#000000" stroke="none" font-family="Arial" font-size="13px" font-style="normal" font-weight="normal" text-decoration="none" x="893.5" y="615.5">1</text></g></g><g transform="translate(-46,-198) scale(1,1)"><rect fill="#C0C0C0" stroke="none" x="631" y="858" width="253" height="147" opacity="0.2"/></g><g transform="translate(-46,-198) scale(1,1)"><rect fill="#ffffff" stroke="none" x="624" y="851" width="253" height="147"/></g><g transform="translate(-46,-198) scale(1,1)"><path fill="none" stroke="#000000" d="M 624 851 L 877 851 L 877 998 L 624 998 L 624 851 Z Z" stroke-miterlimit="10"/></g><g transform="translate(-46,-198) scale(1,1)"><path fill="none" stroke="#000000" d="M 624 891 L 877 891" stroke-miterlimit="10"/></g><g transform="translate(-46,-198) scale(1,1)"><path fill="none" stroke="#000000" d="M 624 989 L 877 989" stroke-miterlimit="10"/></g><g transform="translate(-46,-198) scale(1,1)"><g><path fill="none" stroke="none"/><text fill="#000000" stroke="none" font-family="Arial" font-size="13px" font-style="italic" font-weight="bold" text-decoration="none" x="703.5" y="870.5">AbstractContest</text></g></g><g transform="translate(-46,-198) scale(1,1)"><g><path fill="none" stroke="none"/><text fill="#000000" stroke="none" font-family="Arial" font-size="13px" font-style="normal" font-weight="normal" text-decoration="none" x="709" y="885.5">(from Contest)</text></g></g><g transform="translate(-46,-198) scale(1,1)"><g><path fill="none" stroke="none"/><text fill="#000000" stroke="none" font-family="Arial" font-size="13px" font-style="normal" font-weight="normal" text-decoration="none" x="629" y="908.5">-ListGames: Game[1..*]</text></g></g><g transform="translate(-46,-198) scale(1,1)"><g><path fill="none" stroke="none"/><text fill="#000000" stroke="none" font-family="Arial" font-size="13px" font-style="normal" font-weight="normal" text-decoration="none" x="629" y="923.5">-ListPlayers: Player[2]</text></g></g><g transform="translate(-46,-198) scale(1,1)"><g><path fill="none" stroke="none"/><text fill="#000000" stroke="none" font-family="Arial" font-size="13px" font-style="normal" font-weight="normal" text-decoration="none" x="629" y="938.5">-currentGame: Game</text></g></g><g transform="translate(-46,-198) scale(1,1)"><g><path fill="none" stroke="none"/><text fill="#000000" stroke="none" font-family="Arial" font-size="13px" font-style="normal" font-weight="normal" text-decoration="none" x="629" y="953.5">-isTraining: boolean = false</text></g></g><g transform="translate(-46,-198) scale(1,1)"><g><path fill="none" stroke="none"/><text fill="#000000" stroke="none" font-family="Arial" font-size="13px" font-style="normal" font-weight="normal" text-decoration="none" x="629" y="968.5">-gameFactory</text></g></g><g transform="translate(-46,-198) scale(1,1)"><g><path fill="none" stroke="none"/><text fill="#000000" stroke="none" font-family="Arial" font-size="13px" font-style="normal" font-weight="normal" text-decoration="none" x="629" y="983.5">-contestParameters: AbstractParameter[*]</text></g></g><g transform="translate(-46,-198) scale(1,1)"><path fill="none" stroke="#000000" d="M 408 709 L 632 850" stroke-miterlimit="10"/></g><g transform="translate(-46,-198) scale(1,1)"><path fill="#000000" stroke="none" d="M 621.1569045794081 848.1487080997476 L 632 850 L 625.6418347556709 841.0237126424225 L 613.3814896210931 838.2803126632774"/></g><g transform="translate(-46,-198) scale(1,1)"><path fill="none" stroke="#000000" d="M 621.1569045794081 848.1487080997476 L 632 850 L 625.6418347556709 841.0237126424225 L 613.3814896210931 838.2803126632774 L 621.1569045794081 848.1487080997476" stroke-miterlimit="10"/></g><g transform="translate(-46,-198) scale(1,1)"><g><path fill="none" stroke="none"/><text fill="#000000" stroke="none" font-family="Arial" font-size="13px" font-style="normal" font-weight="normal" text-decoration="none" x="408.5" y="737.5">1..*</text></g></g><g transform="translate(-46,-198) scale(1,1)"><path fill="none" stroke="#000000" d="M 867 696 L 788 850" stroke-miterlimit="10"/></g><g transform="translate(-46,-198) scale(1,1)"><path fill="#000000" stroke="none" d="M 788.8931405719707 839.0363190524943 L 788 850 L 796.3840388997403 842.8790526102463 L 798.0415467008927 830.4253393425636"/></g><g transform="translate(-46,-198) scale(1,1)"><path fill="none" stroke="#000000" d="M 788.8931405719707 839.0363190524943 L 788 850 L 796.3840388997403 842.8790526102463 L 798.0415467008927 830.4253393425636 L 788.8931405719707 839.0363190524943" stroke-miterlimit="10"/></g><g transform="translate(-46,-198) scale(1,1)"><g><path fill="none" stroke="none"/><text fill="#000000" stroke="none" font-family="Arial" font-size="13px" font-style="normal" font-weight="normal" text-decoration="none" x="841.5" y="715.5">2</text></g></g><g transform="translate(-46,-198) scale(1,1)"><path fill="#C0C0C0" stroke="none" d="M 325.84912109375 426.5 C 325.84912109375 420.1487248 330.99784589375 415 337.34912109375 415 C 343.70039629375 415 348.84912109375 420.1487248 348.84912109375 426.5 C 348.84912109375 432.8512752 343.70039629375 438 337.34912109375 438 C 330.99784589375 438 325.84912109375 432.8512752 325.84912109375 426.5 Z" opacity="0.2"/></g><g transform="translate(-46,-198) scale(1,1)"><path fill="#ffffff" stroke="none" d="M 318.84912109375 419.5 C 318.84912109375 413.1487248 323.99784589375 408 330.34912109375 408 C 336.70039629375 408 341.84912109375 413.1487248 341.84912109375 419.5 C 341.84912109375 425.8512752 336.70039629375 431 330.34912109375 431 C 323.99784589375 431 318.84912109375 425.8512752 318.84912109375 419.5 Z"/></g><g transform="translate(-46,-198) scale(1,1)"><path fill="none" stroke="#000000" d="M 318.84912109375 419.5 C 318.84912109375 413.1487248 323.99784589375 408 330.34912109375 408 C 336.70039629375 408 341.84912109375 413.1487248 341.84912109375 419.5 C 341.84912109375 425.8512752 336.70039629375 431 330.34912109375 431 C 323.99784589375 431 318.84912109375 425.8512752 318.84912109375 419.5 Z" stroke-miterlimit="10"/></g><g transform="translate(-46,-198) scale(1,1)"><g><path fill="none" stroke="none"/><text fill="#000000" stroke="none" font-family="Arial" font-size="13px" font-style="normal" font-weight="bold" text-decoration="none" x="306.34912109375" y="450.5">Statistic</text></g></g><g transform="translate(-46,-198) scale(1,1)"><g><path fill="none" stroke="none"/><text fill="#000000" stroke="none" font-family="Arial" font-size="13px" font-style="normal" font-weight="normal" text-decoration="none" x="287.34912109375" y="465.5">(from Statistic)</text></g></g><g transform="translate(-46,-198) scale(1,1)"><path fill="none" stroke="#000000" d="M 330 472 L 328 607" stroke-miterlimit="10"/></g><g transform="translate(-46,-198) scale(1,1)"><path fill="#000000" stroke="none" d="M 323.9414857443813 596.7760838209158 L 328 607 L 332.359597508823 596.9007965877964 L 328.325890164907 585.0024138687805"/></g><g transform="translate(-46,-198) scale(1,1)"><path fill="none" stroke="#000000" d="M 323.9414857443813 596.7760838209158 L 328 607 L 332.359597508823 596.9007965877964 L 328.325890164907 585.0024138687805 L 323.9414857443813 596.7760838209158" stroke-miterlimit="10"/></g><g transform="translate(-46,-198) scale(1,1)"><g><path fill="none" stroke="none"/><text fill="#000000" stroke="none" font-family="Arial" font-size="13px" font-style="normal" font-weight="normal" text-decoration="none" x="306.5" y="499.5">1..*</text></g></g><g transform="translate(-46,-198) scale(1,1)"><path fill="none" stroke="#000000" d="M 503 438 L 382 439" stroke-miterlimit="10"/></g><g transform="translate(-46,-198) scale(1,1)"><path fill="#FFFFFF" stroke="none" d="M 402.2550791965932 430.4132796284183 L 382 439 L 402.39423205627975 447.25077565048355"/></g><g transform="translate(-46,-198) scale(1,1)"><path fill="none" stroke="#000000" d="M 402.2550791965932 430.4132796284183 L 382 439 L 402.39423205627975 447.25077565048355 L 402.2550791965932 430.4132796284183" stroke-miterlimit="10"/></g><g transform="translate(-46,-198) scale(1,1)"><rect fill="#C0C0C0" stroke="none" x="215" y="887" width="217.0888671875" height="72" opacity="0.2"/></g><g transform="translate(-46,-198) scale(1,1)"><rect fill="#ffffff" stroke="none" x="208" y="880" width="217.0888671875" height="72"/></g><g transform="translate(-46,-198) scale(1,1)"><path fill="none" stroke="#000000" d="M 208 880 L 425.0888671875 880 L 425.0888671875 952 L 208 952 L 208 880 Z Z" stroke-miterlimit="10"/></g><g transform="translate(-46,-198) scale(1,1)"><path fill="none" stroke="#000000" d="M 208 920 L 425.0888671875 920" stroke-miterlimit="10"/></g><g transform="translate(-46,-198) scale(1,1)"><path fill="none" stroke="#000000" d="M 208 930 L 425.0888671875 930" stroke-miterlimit="10"/></g><g transform="translate(-46,-198) scale(1,1)"><g><path fill="none" stroke="none"/><text fill="#000000" stroke="none" font-family="Arial" font-size="13px" font-style="normal" font-weight="bold" text-decoration="none" x="277.04443359375" y="899.5">GameFactory</text></g></g><g transform="translate(-46,-198) scale(1,1)"><g><path fill="none" stroke="none"/><text fill="#000000" stroke="none" font-family="Arial" font-size="13px" font-style="normal" font-weight="normal" text-decoration="none" x="280.04443359375" y="914.5">(from Game)</text></g></g><g transform="translate(-46,-198) scale(1,1)"><g><path fill="none" stroke="none"/><text fill="#000000" stroke="none" font-family="Arial" font-size="13px" font-style="normal" font-weight="normal" text-decoration="none" x="213" y="947.5">«Game»+getGame(EnumGames)()</text></g></g><g transform="translate(-46,-198) scale(1,1)"><path fill="none" stroke="#000000" d="M 318 879 L 325 709" stroke-miterlimit="10"/></g><g transform="translate(-46,-198) scale(1,1)"><path fill="none" stroke="#000000" d="M 426 918 L 623 922" stroke-miterlimit="10"/></g><g transform="translate(-46,-198) scale(1,1)"><path fill="#C0C0C0" stroke="none" d="M 108.898193359375 778.5 C 108.898193359375 772.1487248 114.046918159375 767 120.398193359375 767 C 126.749468559375 767 131.898193359375 772.1487248 131.898193359375 778.5 C 131.898193359375 784.8512752 126.749468559375 790 120.398193359375 790 C 114.046918159375 790 108.898193359375 784.8512752 108.898193359375 778.5 Z" opacity="0.2"/></g><g transform="translate(-46,-198) scale(1,1)"><path fill="#ffffff" stroke="none" d="M 101.898193359375 771.5 C 101.898193359375 765.1487248 107.046918159375 760 113.398193359375 760 C 119.749468559375 760 124.898193359375 765.1487248 124.898193359375 771.5 C 124.898193359375 777.8512752 119.749468559375 783 113.398193359375 783 C 107.046918159375 783 101.898193359375 777.8512752 101.898193359375 771.5 Z"/></g><g transform="translate(-46,-198) scale(1,1)"><path fill="none" stroke="#000000" d="M 101.898193359375 771.5 C 101.898193359375 765.1487248 107.046918159375 760 113.398193359375 760 C 119.749468559375 760 124.898193359375 765.1487248 124.898193359375 771.5 C 124.898193359375 777.8512752 119.749468559375 783 113.398193359375 783 C 107.046918159375 783 101.898193359375 777.8512752 101.898193359375 771.5 Z" stroke-miterlimit="10"/></g><g transform="translate(-46,-198) scale(1,1)"><g><path fill="none" stroke="none"/><text fill="#000000" stroke="none" font-family="Arial" font-size="13px" font-style="normal" font-weight="bold" text-decoration="none" x="77.398193359375" y="802.5">Configurable</text></g></g><g transform="translate(-46,-198) scale(1,1)"><g><path fill="none" stroke="none"/><text fill="#000000" stroke="none" font-family="Arial" font-size="13px" font-style="normal" font-weight="normal" text-decoration="none" x="64.398193359375" y="817.5">(from Parameter)</text></g></g><g transform="translate(-46,-198) scale(1,1)"><path fill="none" stroke="#000000" d="M 256 879 L 167 824" stroke-miterlimit="10"/></g><g transform="translate(-46,-198) scale(1,1)"><path fill="none" stroke="#000000" d="M 164 759 L 245 709" stroke-miterlimit="10"/></g><g transform="translate(-46,-198) scale(1,1)"><rect fill="#C0C0C0" stroke="none" x="815" y="215" width="86.517578125" height="87" opacity="0.2"/></g><g transform="translate(-46,-198) scale(1,1)"><rect fill="#ffffff" stroke="none" x="808" y="208" width="86.517578125" height="87"/></g><g transform="translate(-46,-198) scale(1,1)"><path fill="none" stroke="#000000" d="M 808 208 L 894.517578125 208 L 894.517578125 295 L 808 295 L 808 208 Z Z" stroke-miterlimit="10"/></g><g transform="translate(-46,-198) scale(1,1)"><path fill="none" stroke="#000000" d="M 808 248 L 894.517578125 248" stroke-miterlimit="10"/></g><g transform="translate(-46,-198) scale(1,1)"><path fill="none" stroke="#000000" d="M 808 258 L 894.517578125 258" stroke-miterlimit="10"/></g><g transform="translate(-46,-198) scale(1,1)"><g><path fill="none" stroke="none"/><text fill="#000000" stroke="none" font-family="Arial" font-size="13px" font-style="italic" font-weight="bold" text-decoration="none" x="834.2587890625" y="227.5">Entity</text></g></g><g transform="translate(-46,-198) scale(1,1)"><g><path fill="none" stroke="none"/><text fill="#000000" stroke="none" font-family="Arial" font-size="13px" font-style="normal" font-weight="normal" text-decoration="none" x="815.2587890625" y="242.5">(from Entity)</text></g></g><g transform="translate(-46,-198) scale(1,1)"><g><path fill="none" stroke="none"/><text fill="#000000" stroke="none" font-family="Arial" font-size="13px" font-style="normal" font-weight="normal" text-decoration="none" x="813" y="275.5">+save()</text></g></g><g transform="translate(-46,-198) scale(1,1)"><g><path fill="none" stroke="none"/><text fill="#000000" stroke="none" font-family="Arial" font-size="13px" font-style="normal" font-weight="normal" text-decoration="none" x="813" y="290.5">+delete()</text></g></g><g transform="translate(-46,-198) scale(1,1)"><path fill="none" stroke="#000000" d="M 614 253 L 807 251" stroke-miterlimit="10"/></g><g transform="translate(-46,-198) scale(1,1)"><path fill="#FFFFFF" stroke="none" d="M 786.7629807274392 259.62919758505984 L 807 251 L 786.588502312775 242.79203056996383"/></g><g transform="translate(-46,-198) scale(1,1)"><path fill="none" stroke="#000000" d="M 786.7629807274392 259.62919758505984 L 807 251 L 786.588502312775 242.79203056996383 L 786.7629807274392 259.62919758505984" stroke-miterlimit="10"/></g><g transform="translate(-46,-198) scale(1,1)"><rect fill="#C0C0C0" stroke="none" x="1063" y="231" width="88.6376953125" height="59" opacity="0.2"/></g><g transform="translate(-46,-198) scale(1,1)"><rect fill="#ffffff" stroke="none" x="1056" y="224" width="88.6376953125" height="59"/></g><g transform="translate(-46,-198) scale(1,1)"><path fill="none" stroke="#000000" d="M 1056 224 L 1144.6376953125 224 L 1144.6376953125 283 L 1056 283 L 1056 224 Z Z" stroke-miterlimit="10"/></g><g transform="translate(-46,-198) scale(1,1)"><path fill="none" stroke="#000000" d="M 1056 264 L 1144.6376953125 264" stroke-miterlimit="10"/></g><g transform="translate(-46,-198) scale(1,1)"><path fill="none" stroke="#000000" d="M 1056 274 L 1144.6376953125 274" stroke-miterlimit="10"/></g><g transform="translate(-46,-198) scale(1,1)"><g><path fill="none" stroke="none"/><text fill="#000000" stroke="none" font-family="Arial" font-size="13px" font-style="italic" font-weight="bold" text-decoration="none" x="1064.81884765625" y="243.5">PlayerEntity</text></g></g><g transform="translate(-46,-198) scale(1,1)"><g><path fill="none" stroke="none"/><text fill="#000000" stroke="none" font-family="Arial" font-size="13px" font-style="normal" font-weight="normal" text-decoration="none" x="1064.31884765625" y="258.5">(from Entity)</text></g></g><g transform="translate(-46,-198) scale(1,1)"><path fill="none" stroke="#000000" d="M 1055 253 L 896 251" stroke-miterlimit="10"/></g><g transform="translate(-46,-198) scale(1,1)"><path fill="#FFFFFF" stroke="none" d="M 916.4296333924018 242.83727499838074 L 896 251 L 916.2178505105284 259.6740141073165"/></g><g transform="translate(-46,-198) scale(1,1)"><path fill="none" stroke="#000000" d="M 916.4296333924018 242.83727499838074 L 896 251 L 916.2178505105284 259.6740141073165 L 916.4296333924018 242.83727499838074" stroke-miterlimit="10"/></g><g transform="translate(-46,-198) scale(1,1)"><rect fill="#C0C0C0" stroke="none" x="1047" y="615" width="106.49365234375" height="59" opacity="0.2"/></g><g transform="translate(-46,-198) scale(1,1)"><rect fill="#ffffff" stroke="none" x="1040" y="608" width="106.49365234375" height="59"/></g><g transform="translate(-46,-198) scale(1,1)"><path fill="none" stroke="#000000" d="M 1040 608 L 1146.49365234375 608 L 1146.49365234375 667 L 1040 667 L 1040 608 Z Z" stroke-miterlimit="10"/></g><g transform="translate(-46,-198) scale(1,1)"><path fill="none" stroke="#000000" d="M 1040 648 L 1146.49365234375 648" stroke-miterlimit="10"/></g><g transform="translate(-46,-198) scale(1,1)"><path fill="none" stroke="#000000" d="M 1040 658 L 1146.49365234375 658" stroke-miterlimit="10"/></g><g transform="translate(-46,-198) scale(1,1)"><g><path fill="none" stroke="none"/><text fill="#000000" stroke="none" font-family="Arial" font-size="13px" font-style="italic" font-weight="bold" text-decoration="none" x="1050.246826171875" y="627.5">AbstractPlayer</text></g></g><g transform="translate(-46,-198) scale(1,1)"><g><path fill="none" stroke="none"/><text fill="#000000" stroke="none" font-family="Arial" font-size="13px" font-style="normal" font-weight="normal" text-decoration="none" x="1055.746826171875" y="642.5">(from Player)</text></g></g><g transform="translate(-46,-198) scale(1,1)"><path fill="none" stroke="#000000" d="M 1094 607 L 1099 284" stroke-miterlimit="10"/></g><g transform="translate(-46,-198) scale(1,1)"><path fill="#FFFFFF" stroke="none" d="M 1107.1034307750228 304.45322492113195 L 1099 284 L 1090.2673768130282 304.1926048907605"/></g><g transform="translate(-46,-198) scale(1,1)"><path fill="none" stroke="#000000" d="M 1107.1034307750228 304.45322492113195 L 1099 284 L 1090.2673768130282 304.1926048907605 L 1107.1034307750228 304.45322492113195" stroke-miterlimit="10"/></g><g transform="translate(-46,-198) scale(1,1)"><path fill="none" stroke="#000000" d="M 1039 644 L 895.802978515625 646.5922108525815" stroke-miterlimit="10"/></g></g></svg>