<svg version="1.1" xmlns="http://www.w3.org/2000/svg" xmlns:xlink="http://www.w3.org/1999/xlink" width="772.09326171875" height="764"><defs/><g><g transform="translate(-6,-62) scale(1,1)"><rect fill="#C0C0C0" stroke="none" x="95" y="687" width="87.08251953125" height="59" opacity="0.2"/></g><g transform="translate(-6,-62) scale(1,1)"><rect fill="#ffffff" stroke="none" x="88" y="680" width="87.08251953125" height="59"/></g><g transform="translate(-6,-62) scale(1,1)"><path fill="none" stroke="#000000" d="M 88 680 L 175.08251953125 680 L 175.08251953125 739 L 88 739 L 88 680 Z Z" stroke-miterlimit="10"/></g><g transform="translate(-6,-62) scale(1,1)"><path fill="none" stroke="#000000" d="M 88 720 L 175.08251953125 720" stroke-miterlimit="10"/></g><g transform="translate(-6,-62) scale(1,1)"><path fill="none" stroke="#000000" d="M 88 730 L 175.08251953125 730" stroke-miterlimit="10"/></g><g transform="translate(-6,-62) scale(1,1)"><g><path fill="none" stroke="none"/><text fill="#000000" stroke="none" font-family="Arial" font-size="13px" font-style="normal" font-weight="bold" text-decoration="none" x="108.541259765625" y="699.5">Morpion</text></g></g><g transform="translate(-6,-62) scale(1,1)"><g><path fill="none" stroke="none"/><text fill="#000000" stroke="none" font-family="Arial" font-size="13px" font-style="normal" font-weight="normal" text-decoration="none" x="95.041259765625" y="714.5">(from Game)</text></g></g><g transform="translate(-6,-62) scale(1,1)"><rect fill="#C0C0C0" stroke="none" x="23" y="463" width="222" height="87" opacity="0.2"/></g><g transform="translate(-6,-62) scale(1,1)"><rect fill="#ffffff" stroke="none" x="16" y="456" width="222" height="87"/></g><g transform="translate(-6,-62) scale(1,1)"><path fill="none" stroke="#000000" d="M 16 456 L 238 456 L 238 543 L 16 543 L 16 456 Z Z" stroke-miterlimit="10"/></g><g transform="translate(-6,-62) scale(1,1)"><path fill="none" stroke="#000000" d="M 16 496 L 238 496" stroke-miterlimit="10"/></g><g transform="translate(-6,-62) scale(1,1)"><path fill="none" stroke="#000000" d="M 16 534 L 238 534" stroke-miterlimit="10"/></g><g transform="translate(-6,-62) scale(1,1)"><g><path fill="none" stroke="none"/><text fill="#000000" stroke="none" font-family="Arial" font-size="13px" font-style="italic" font-weight="bold" text-decoration="none" x="109.5" y="475.5">Game</text></g></g><g transform="translate(-6,-62) scale(1,1)"><g><path fill="none" stroke="none"/><text fill="#000000" stroke="none" font-family="Arial" font-size="13px" font-style="normal" font-weight="normal" text-decoration="none" x="90.5" y="490.5">(from Game)</text></g></g><g transform="translate(-6,-62) scale(1,1)"><g><path fill="none" stroke="none"/><text fill="#000000" stroke="none" font-family="Arial" font-size="13px" font-style="normal" font-weight="normal" text-decoration="none" x="21" y="513.5">-ListPlayers: Player[2]</text></g></g><g transform="translate(-6,-62) scale(1,1)"><g><path fill="none" stroke="none"/><text fill="#000000" stroke="none" font-family="Arial" font-size="13px" font-style="normal" font-weight="normal" text-decoration="none" x="21" y="528.5">-ListStatistics: Statistic[1..*]</text></g></g><g transform="translate(-6,-62) scale(1,1)"><path fill="none" stroke="#000000" d="M 130 679 L 128 544" stroke-miterlimit="10"/></g><g transform="translate(-6,-62) scale(1,1)"><path fill="#FFFFFF" stroke="none" d="M 136.719195017646 564.1984068244071 L 128 544 L 119.88297148876252 564.4478323581684"/></g><g transform="translate(-6,-62) scale(1,1)"><path fill="none" stroke="#000000" d="M 136.719195017646 564.1984068244071 L 128 544 L 119.88297148876252 564.4478323581684 L 136.719195017646 564.1984068244071" stroke-miterlimit="10"/></g><g transform="translate(-6,-62) scale(1,1)"><rect fill="#C0C0C0" stroke="none" x="311" y="263" width="119.14453125" height="59" opacity="0.2"/></g><g transform="translate(-6,-62) scale(1,1)"><rect fill="#ffffff" stroke="none" x="304" y="256" width="119.14453125" height="59"/></g><g transform="translate(-6,-62) scale(1,1)"><path fill="none" stroke="#000000" d="M 304 256 L 423.14453125 256 L 423.14453125 315 L 304 315 L 304 256 Z Z" stroke-miterlimit="10"/></g><g transform="translate(-6,-62) scale(1,1)"><path fill="none" stroke="#000000" d="M 304 296 L 423.14453125 296" stroke-miterlimit="10"/></g><g transform="translate(-6,-62) scale(1,1)"><path fill="none" stroke="#000000" d="M 304 306 L 423.14453125 306" stroke-miterlimit="10"/></g><g transform="translate(-6,-62) scale(1,1)"><g><path fill="none" stroke="none"/><text fill="#000000" stroke="none" font-family="Arial" font-size="13px" font-style="italic" font-weight="bold" text-decoration="none" x="315.072265625" y="275.5">AbstractStatistic</text></g></g><g transform="translate(-6,-62) scale(1,1)"><g><path fill="none" stroke="none"/><text fill="#000000" stroke="none" font-family="Arial" font-size="13px" font-style="normal" font-weight="normal" text-decoration="none" x="320.572265625" y="290.5">(from Statistic)</text></g></g><g transform="translate(-6,-62) scale(1,1)"><rect fill="#C0C0C0" stroke="none" x="615" y="263" width="160.09326171875" height="72" opacity="0.2"/></g><g transform="translate(-6,-62) scale(1,1)"><rect fill="#ffffff" stroke="none" x="608" y="256" width="160.09326171875" height="72"/></g><g transform="translate(-6,-62) scale(1,1)"><path fill="none" stroke="#000000" d="M 608 256 L 768.09326171875 256 L 768.09326171875 328 L 608 328 L 608 256 Z Z" stroke-miterlimit="10"/></g><g transform="translate(-6,-62) scale(1,1)"><path fill="none" stroke="#000000" d="M 608 296 L 768.09326171875 296" stroke-miterlimit="10"/></g><g transform="translate(-6,-62) scale(1,1)"><path fill="none" stroke="#000000" d="M 608 319 L 768.09326171875 319" stroke-miterlimit="10"/></g><g transform="translate(-6,-62) scale(1,1)"><g><path fill="none" stroke="none"/><text fill="#000000" stroke="none" font-family="Arial" font-size="13px" font-style="italic" font-weight="bold" text-decoration="none" x="621.046630859375" y="275.5">AbstractPlayerStatistic</text></g></g><g transform="translate(-6,-62) scale(1,1)"><g><path fill="none" stroke="none"/><text fill="#000000" stroke="none" font-family="Arial" font-size="13px" font-style="normal" font-weight="normal" text-decoration="none" x="645.046630859375" y="290.5">(from Statistic)</text></g></g><g transform="translate(-6,-62) scale(1,1)"><g><path fill="none" stroke="none"/><text fill="#000000" stroke="none" font-family="Arial" font-size="13px" font-style="normal" font-weight="normal" text-decoration="none" x="613" y="313.5">-Player: Player[1]</text></g></g><g transform="translate(-6,-62) scale(1,1)"><path fill="none" stroke="#000000" d="M 607 290 L 424 286" stroke-miterlimit="10"/></g><g transform="translate(-6,-62) scale(1,1)"><path fill="#FFFFFF" stroke="none" d="M 444.5044747349576 278.02713879190895 L 424 286 L 444.13651735545716 294.8611889040564"/></g><g transform="translate(-6,-62) scale(1,1)"><path fill="none" stroke="#000000" d="M 444.5044747349576 278.02713879190895 L 424 286 L 444.13651735545716 294.8611889040564 L 444.5044747349576 278.02713879190895" stroke-miterlimit="10"/></g><g transform="translate(-6,-62) scale(1,1)"><rect fill="#C0C0C0" stroke="none" x="319" y="79" width="101.28857421875" height="59" opacity="0.2"/></g><g transform="translate(-6,-62) scale(1,1)"><rect fill="#ffffff" stroke="none" x="312" y="72" width="101.28857421875" height="59"/></g><g transform="translate(-6,-62) scale(1,1)"><path fill="none" stroke="#000000" d="M 312 72 L 413.28857421875 72 L 413.28857421875 131 L 312 131 L 312 72 Z Z" stroke-miterlimit="10"/></g><g transform="translate(-6,-62) scale(1,1)"><path fill="none" stroke="#000000" d="M 312 112 L 413.28857421875 112" stroke-miterlimit="10"/></g><g transform="translate(-6,-62) scale(1,1)"><path fill="none" stroke="#000000" d="M 312 122 L 413.28857421875 122" stroke-miterlimit="10"/></g><g transform="translate(-6,-62) scale(1,1)"><g><path fill="none" stroke="none"/><text fill="#000000" stroke="none" font-family="Arial" font-size="13px" font-style="italic" font-weight="bold" text-decoration="none" x="321.644287109375" y="91.5">StatisticEntity</text></g></g><g transform="translate(-6,-62) scale(1,1)"><g><path fill="none" stroke="none"/><text fill="#000000" stroke="none" font-family="Arial" font-size="13px" font-style="normal" font-weight="normal" text-decoration="none" x="319.644287109375" y="106.5">(from Statistic)</text></g></g><g transform="translate(-6,-62) scale(1,1)"><path fill="none" stroke="#000000" d="M 363 255 L 362 132" stroke-miterlimit="10"/></g><g transform="translate(-6,-62) scale(1,1)"><path fill="#FFFFFF" stroke="none" d="M 370.5839985688508 152.25623283263616 L 362 132 L 353.7464840004794 152.39312319498066"/></g><g transform="translate(-6,-62) scale(1,1)"><path fill="none" stroke="#000000" d="M 370.5839985688508 152.25623283263616 L 362 132 L 353.7464840004794 152.39312319498066 L 370.5839985688508 152.25623283263616" stroke-miterlimit="10"/></g><g transform="translate(-6,-62) scale(1,1)"><path fill="#C0C0C0" stroke="none" d="M 679.802978515625 498.5 C 679.802978515625 492.1487248 684.951703315625 487 691.302978515625 487 C 697.654253715625 487 702.802978515625 492.1487248 702.802978515625 498.5 C 702.802978515625 504.8512752 697.654253715625 510 691.302978515625 510 C 684.951703315625 510 679.802978515625 504.8512752 679.802978515625 498.5 Z" opacity="0.2"/></g><g transform="translate(-6,-62) scale(1,1)"><path fill="#ffffff" stroke="none" d="M 672.802978515625 491.5 C 672.802978515625 485.1487248 677.951703315625 480 684.302978515625 480 C 690.654253715625 480 695.802978515625 485.1487248 695.802978515625 491.5 C 695.802978515625 497.8512752 690.654253715625 503 684.302978515625 503 C 677.951703315625 503 672.802978515625 497.8512752 672.802978515625 491.5 Z"/></g><g transform="translate(-6,-62) scale(1,1)"><path fill="none" stroke="#000000" d="M 672.802978515625 491.5 C 672.802978515625 485.1487248 677.951703315625 480 684.302978515625 480 C 690.654253715625 480 695.802978515625 485.1487248 695.802978515625 491.5 C 695.802978515625 497.8512752 690.654253715625 503 684.302978515625 503 C 677.951703315625 503 672.802978515625 497.8512752 672.802978515625 491.5 Z" stroke-miterlimit="10"/></g><g transform="translate(-6,-62) scale(1,1)"><g><path fill="none" stroke="none"/><text fill="#000000" stroke="none" font-family="Arial" font-size="13px" font-style="normal" font-weight="bold" text-decoration="none" x="665.802978515625" y="522.5">Player</text></g></g><g transform="translate(-6,-62) scale(1,1)"><g><path fill="none" stroke="none"/><text fill="#000000" stroke="none" font-family="Arial" font-size="13px" font-style="normal" font-weight="normal" text-decoration="none" x="646.802978515625" y="537.5">(from Player)</text></g></g><g transform="translate(-6,-62) scale(1,1)"><path fill="none" stroke="#000000" d="M 639 510 L 239 501" stroke-miterlimit="10"/></g><g transform="translate(-6,-62) scale(1,1)"><path fill="#000000" stroke="none" d="M 249.2547935909476 497.0201497004209 L 239 501 L 249.0654132227671 505.4370549528877 L 260.99443336349316 501.4948747506786"/></g><g transform="translate(-6,-62) scale(1,1)"><path fill="none" stroke="#000000" d="M 249.2547935909476 497.0201497004209 L 239 501 L 249.0654132227671 505.4370549528877 L 260.99443336349316 501.4948747506786 L 249.2547935909476 497.0201497004209" stroke-miterlimit="10"/></g><g transform="translate(-6,-62) scale(1,1)"><g><path fill="none" stroke="none"/><text fill="#000000" stroke="none" font-family="Arial" font-size="13px" font-style="normal" font-weight="normal" text-decoration="none" x="613.5" y="503.5">2</text></g></g><g transform="translate(-6,-62) scale(1,1)"><path fill="none" stroke="#000000" d="M 685 479 L 687 329" stroke-miterlimit="10"/></g><g transform="translate(-6,-62) scale(1,1)"><path fill="#000000" stroke="none" d="M 691.073653338154 339.2178935441972 L 687 329 L 682.6553660850678 339.105649714156 L 686.7066927372647 350.9980447051466"/></g><g transform="translate(-6,-62) scale(1,1)"><path fill="none" stroke="#000000" d="M 691.073653338154 339.2178935441972 L 687 329 L 682.6553660850678 339.105649714156 L 686.7066927372647 350.9980447051466 L 691.073653338154 339.2178935441972" stroke-miterlimit="10"/></g><g transform="translate(-6,-62) scale(1,1)"><g><path fill="none" stroke="none"/><text fill="#000000" stroke="none" font-family="Arial" font-size="13px" font-style="normal" font-weight="normal" text-decoration="none" x="693.5" y="463.5">1</text></g></g><g transform="translate(-6,-62) scale(1,1)"><rect fill="#C0C0C0" stroke="none" x="431" y="706" width="152.01904296875" height="117" opacity="0.2"/></g><g transform="translate(-6,-62) scale(1,1)"><rect fill="#ffffff" stroke="none" x="424" y="699" width="152.01904296875" height="117"/></g><g transform="translate(-6,-62) scale(1,1)"><path fill="none" stroke="#000000" d="M 424 699 L 576.01904296875 699 L 576.01904296875 816 L 424 816 L 424 699 Z Z" stroke-miterlimit="10"/></g><g transform="translate(-6,-62) scale(1,1)"><path fill="none" stroke="#000000" d="M 424 739 L 576.01904296875 739" stroke-miterlimit="10"/></g><g transform="translate(-6,-62) scale(1,1)"><path fill="none" stroke="#000000" d="M 424 807 L 576.01904296875 807" stroke-miterlimit="10"/></g><g transform="translate(-6,-62) scale(1,1)"><g><path fill="none" stroke="none"/><text fill="#000000" stroke="none" font-family="Arial" font-size="13px" font-style="italic" font-weight="bold" text-decoration="none" x="453.009521484375" y="718.5">AbstractContest</text></g></g><g transform="translate(-6,-62) scale(1,1)"><g><path fill="none" stroke="none"/><text fill="#000000" stroke="none" font-family="Arial" font-size="13px" font-style="normal" font-weight="normal" text-decoration="none" x="458.509521484375" y="733.5">(from Contest)</text></g></g><g transform="translate(-6,-62) scale(1,1)"><g><path fill="none" stroke="none"/><text fill="#000000" stroke="none" font-family="Arial" font-size="13px" font-style="normal" font-weight="normal" text-decoration="none" x="429" y="756.5">-ListGames: Game[1..*]</text></g></g><g transform="translate(-6,-62) scale(1,1)"><g><path fill="none" stroke="none"/><text fill="#000000" stroke="none" font-family="Arial" font-size="13px" font-style="normal" font-weight="normal" text-decoration="none" x="429" y="771.5">-ListPlayers: Player[2]</text></g></g><g transform="translate(-6,-62) scale(1,1)"><g><path fill="none" stroke="none"/><text fill="#000000" stroke="none" font-family="Arial" font-size="13px" font-style="normal" font-weight="normal" text-decoration="none" x="429" y="786.5">-currentGame: Game</text></g></g><g transform="translate(-6,-62) scale(1,1)"><g><path fill="none" stroke="none"/><text fill="#000000" stroke="none" font-family="Arial" font-size="13px" font-style="normal" font-weight="normal" text-decoration="none" x="429" y="801.5">-isTraining</text></g></g><g transform="translate(-6,-62) scale(1,1)"><path fill="none" stroke="#000000" d="M 192 544 L 423 704" stroke-miterlimit="10"/></g><g transform="translate(-6,-62) scale(1,1)"><path fill="#000000" stroke="none" d="M 412.24875183959523 701.673916812882 L 423 704 L 417.0425087147736 694.7529303243432 L 404.914590747331 691.473309608541"/></g><g transform="translate(-6,-62) scale(1,1)"><path fill="none" stroke="#000000" d="M 412.24875183959523 701.673916812882 L 423 704 L 417.0425087147736 694.7529303243432 L 404.914590747331 691.473309608541 L 412.24875183959523 701.673916812882" stroke-miterlimit="10"/></g><g transform="translate(-6,-62) scale(1,1)"><g><path fill="none" stroke="none"/><text fill="#000000" stroke="none" font-family="Arial" font-size="13px" font-style="normal" font-weight="normal" text-decoration="none" x="191.5" y="572.5">1..*</text></g></g><g transform="translate(-6,-62) scale(1,1)"><path fill="none" stroke="#000000" d="M 659 544 L 544 698" stroke-miterlimit="10"/></g><g transform="translate(-6,-62) scale(1,1)"><path fill="#000000" stroke="none" d="M 546.7078082576594 687.3384909867434 L 544 698 L 553.4535349020991 692.3758842601886 L 557.1633429812019 680.3725667903905"/></g><g transform="translate(-6,-62) scale(1,1)"><path fill="none" stroke="#000000" d="M 546.7078082576594 687.3384909867434 L 544 698 L 553.4535349020991 692.3758842601886 L 557.1633429812019 680.3725667903905 L 546.7078082576594 687.3384909867434" stroke-miterlimit="10"/></g><g transform="translate(-6,-62) scale(1,1)"><g><path fill="none" stroke="none"/><text fill="#000000" stroke="none" font-family="Arial" font-size="13px" font-style="normal" font-weight="normal" text-decoration="none" x="632.5" y="559.5">2</text></g></g><g transform="translate(-6,-62) scale(1,1)"><path fill="#C0C0C0" stroke="none" d="M 125.84912109375 274.5 C 125.84912109375 268.1487248 130.99784589375 263 137.34912109375 263 C 143.70039629375 263 148.84912109375 268.1487248 148.84912109375 274.5 C 148.84912109375 280.8512752 143.70039629375 286 137.34912109375 286 C 130.99784589375 286 125.84912109375 280.8512752 125.84912109375 274.5 Z" opacity="0.2"/></g><g transform="translate(-6,-62) scale(1,1)"><path fill="#ffffff" stroke="none" d="M 118.84912109375 267.5 C 118.84912109375 261.1487248 123.99784589375 256 130.34912109375 256 C 136.70039629375 256 141.84912109375 261.1487248 141.84912109375 267.5 C 141.84912109375 273.8512752 136.70039629375 279 130.34912109375 279 C 123.99784589375 279 118.84912109375 273.8512752 118.84912109375 267.5 Z"/></g><g transform="translate(-6,-62) scale(1,1)"><path fill="none" stroke="#000000" d="M 118.84912109375 267.5 C 118.84912109375 261.1487248 123.99784589375 256 130.34912109375 256 C 136.70039629375 256 141.84912109375 261.1487248 141.84912109375 267.5 C 141.84912109375 273.8512752 136.70039629375 279 130.34912109375 279 C 123.99784589375 279 118.84912109375 273.8512752 118.84912109375 267.5 Z" stroke-miterlimit="10"/></g><g transform="translate(-6,-62) scale(1,1)"><g><path fill="none" stroke="none"/><text fill="#000000" stroke="none" font-family="Arial" font-size="13px" font-style="normal" font-weight="bold" text-decoration="none" x="106.34912109375" y="298.5">Statistic</text></g></g><g transform="translate(-6,-62) scale(1,1)"><g><path fill="none" stroke="none"/><text fill="#000000" stroke="none" font-family="Arial" font-size="13px" font-style="normal" font-weight="normal" text-decoration="none" x="87.34912109375" y="313.5">(from Statistic)</text></g></g><g transform="translate(-6,-62) scale(1,1)"><path fill="none" stroke="#000000" d="M 130 320 L 128 455" stroke-miterlimit="10"/></g><g transform="translate(-6,-62) scale(1,1)"><path fill="#000000" stroke="none" d="M 123.94148574438125 444.7760838209158 L 128 455 L 132.35959750882301 444.90079658779644 L 128.32589016490695 433.0024138687806"/></g><g transform="translate(-6,-62) scale(1,1)"><path fill="none" stroke="#000000" d="M 123.94148574438125 444.7760838209158 L 128 455 L 132.35959750882301 444.90079658779644 L 128.32589016490695 433.0024138687806 L 123.94148574438125 444.7760838209158" stroke-miterlimit="10"/></g><g transform="translate(-6,-62) scale(1,1)"><g><path fill="none" stroke="none"/><text fill="#000000" stroke="none" font-family="Arial" font-size="13px" font-style="normal" font-weight="normal" text-decoration="none" x="106.5" y="347.5">1..*</text></g></g><g transform="translate(-6,-62) scale(1,1)"><path fill="none" stroke="#000000" d="M 303 286 L 182 287" stroke-miterlimit="10"/></g><g transform="translate(-6,-62) scale(1,1)"><path fill="#FFFFFF" stroke="none" d="M 202.25507919659324 278.4132796284183 L 182 287 L 202.39423205627972 295.25077565048355"/></g><g transform="translate(-6,-62) scale(1,1)"><path fill="none" stroke="#000000" d="M 202.25507919659324 278.4132796284183 L 182 287 L 202.39423205627972 295.25077565048355 L 202.25507919659324 278.4132796284183" stroke-miterlimit="10"/></g></g></svg>