<svg version="1.1" xmlns="http://www.w3.org/2000/svg" xmlns:xlink="http://www.w3.org/1999/xlink" width="644" height="540"><defs/><g><g transform="translate(-142,-102) scale(1,1)"><rect fill="#C0C0C0" stroke="none" x="159" y="119" width="249.60000000000002" height="15" opacity="0.2"/></g><g transform="translate(-142,-102) scale(1,1)"><rect fill="#C0C0C0" stroke="none" x="159" y="133" width="624" height="506" opacity="0.2"/></g><g transform="translate(-142,-102) scale(1,1)"><rect fill="#ffffff" stroke="none" x="152" y="127" width="624" height="505"/></g><g transform="translate(-142,-102) scale(1,1)"><path fill="none" stroke="#000000" d="M 152 127 L 776 127 L 776 632 L 152 632 L 152 127 Z Z" stroke-miterlimit="10"/></g><g transform="translate(-142,-102) scale(1,1)"><rect fill="#ffffff" stroke="none" x="152" y="112" width="249.60000000000002" height="15"/></g><g transform="translate(-142,-102) scale(1,1)"><path fill="none" stroke="#000000" d="M 152 112 L 401.6 112 L 401.6 127 L 152 127 L 152 112 Z Z" stroke-miterlimit="10"/></g><g transform="translate(-142,-102) scale(1,1)"><rect fill="#ffffff" stroke="none" x="152" y="126" width="624" height="506"/></g><g transform="translate(-142,-102) scale(1,1)"><path fill="none" stroke="#000000" d="M 152 126 L 776 126 L 776 632 L 152 632 L 152 126 Z Z" stroke-miterlimit="10"/></g><g transform="translate(-142,-102) scale(1,1)"><g><path fill="none" stroke="none"/><text fill="#000000" stroke="none" font-family="Arial" font-size="13px" font-style="normal" font-weight="bold" text-decoration="none" x="445.5" y="146.5">Player</text></g></g><g transform="translate(-142,-102) scale(1,1)"><rect fill="#C0C0C0" stroke="none" x="319" y="383" width="84.6005859375" height="44" opacity="0.2"/></g><g transform="translate(-142,-102) scale(1,1)"><rect fill="#ffffff" stroke="none" x="312" y="376" width="84.6005859375" height="44"/></g><g transform="translate(-142,-102) scale(1,1)"><path fill="none" stroke="#000000" d="M 312 376 L 396.6005859375 376 L 396.6005859375 420 L 312 420 L 312 376 Z Z" stroke-miterlimit="10"/></g><g transform="translate(-142,-102) scale(1,1)"><path fill="none" stroke="#000000" d="M 312 401 L 396.6005859375 401" stroke-miterlimit="10"/></g><g transform="translate(-142,-102) scale(1,1)"><path fill="none" stroke="#000000" d="M 312 411 L 396.6005859375 411" stroke-miterlimit="10"/></g><g transform="translate(-142,-102) scale(1,1)"><g><path fill="none" stroke="none"/><text fill="#000000" stroke="none" font-family="Arial" font-size="13px" font-style="normal" font-weight="bold" text-decoration="none" x="320.30029296875" y="395.5">LocalPlayer</text></g></g><g transform="translate(-142,-102) scale(1,1)"><rect fill="#C0C0C0" stroke="none" x="543" y="255" width="88.6376953125" height="59" opacity="0.2"/></g><g transform="translate(-142,-102) scale(1,1)"><rect fill="#ffffff" stroke="none" x="536" y="248" width="88.6376953125" height="59"/></g><g transform="translate(-142,-102) scale(1,1)"><path fill="none" stroke="#000000" d="M 536 248 L 624.6376953125 248 L 624.6376953125 307 L 536 307 L 536 248 Z Z" stroke-miterlimit="10"/></g><g transform="translate(-142,-102) scale(1,1)"><path fill="none" stroke="#000000" d="M 536 288 L 624.6376953125 288" stroke-miterlimit="10"/></g><g transform="translate(-142,-102) scale(1,1)"><path fill="none" stroke="#000000" d="M 536 298 L 624.6376953125 298" stroke-miterlimit="10"/></g><g transform="translate(-142,-102) scale(1,1)"><g><path fill="none" stroke="none"/><text fill="#000000" stroke="none" font-family="Arial" font-size="13px" font-style="italic" font-weight="bold" text-decoration="none" x="544.81884765625" y="267.5">PlayerEntity</text></g></g><g transform="translate(-142,-102) scale(1,1)"><g><path fill="none" stroke="none"/><text fill="#000000" stroke="none" font-family="Arial" font-size="13px" font-style="normal" font-weight="normal" text-decoration="none" x="544.31884765625" y="282.5">(from Entity)</text></g></g><g transform="translate(-142,-102) scale(1,1)"><path fill="none" stroke="#000000" d="M 411 278 L 535 277" stroke-miterlimit="10"/></g><g transform="translate(-142,-102) scale(1,1)"><path fill="#FFFFFF" stroke="none" d="M 514.7432044364557 285.58267053409196 L 535 277 L 514.6074179565618 268.74514702725463"/></g><g transform="translate(-142,-102) scale(1,1)"><path fill="none" stroke="#000000" d="M 514.7432044364557 285.58267053409196 L 535 277 L 514.6074179565618 268.74514702725463 L 514.7432044364557 285.58267053409196" stroke-miterlimit="10"/></g><g transform="translate(-142,-102) scale(1,1)"><path fill="#C0C0C0" stroke="none" d="M 350 194.5 C 350 188.1487248 355.1487248 183 361.5 183 C 367.8512752 183 373 188.1487248 373 194.5 C 373 200.8512752 367.8512752 206 361.5 206 C 355.1487248 206 350 200.8512752 350 194.5 Z" opacity="0.2"/></g><g transform="translate(-142,-102) scale(1,1)"><path fill="#ffffff" stroke="none" d="M 343 187.5 C 343 181.1487248 348.1487248 176 354.5 176 C 360.8512752 176 366 181.1487248 366 187.5 C 366 193.8512752 360.8512752 199 354.5 199 C 348.1487248 199 343 193.8512752 343 187.5 Z"/></g><g transform="translate(-142,-102) scale(1,1)"><path fill="none" stroke="#000000" d="M 343 187.5 C 343 181.1487248 348.1487248 176 354.5 176 C 360.8512752 176 366 181.1487248 366 187.5 C 366 193.8512752 360.8512752 199 354.5 199 C 348.1487248 199 343 193.8512752 343 187.5 Z" stroke-miterlimit="10"/></g><g transform="translate(-142,-102) scale(1,1)"><g><path fill="none" stroke="none"/><text fill="#000000" stroke="none" font-family="Arial" font-size="13px" font-style="normal" font-weight="bold" text-decoration="none" x="336" y="218.5">Player</text></g></g><g transform="translate(-142,-102) scale(1,1)"><rect fill="#C0C0C0" stroke="none" x="311" y="263" width="106.49365234375" height="44" opacity="0.2"/></g><g transform="translate(-142,-102) scale(1,1)"><rect fill="#ffffff" stroke="none" x="304" y="256" width="106.49365234375" height="44"/></g><g transform="translate(-142,-102) scale(1,1)"><path fill="none" stroke="#000000" d="M 304 256 L 410.49365234375 256 L 410.49365234375 300 L 304 300 L 304 256 Z Z" stroke-miterlimit="10"/></g><g transform="translate(-142,-102) scale(1,1)"><path fill="none" stroke="#000000" d="M 304 281 L 410.49365234375 281" stroke-miterlimit="10"/></g><g transform="translate(-142,-102) scale(1,1)"><path fill="none" stroke="#000000" d="M 304 291 L 410.49365234375 291" stroke-miterlimit="10"/></g><g transform="translate(-142,-102) scale(1,1)"><g><path fill="none" stroke="none"/><text fill="#000000" stroke="none" font-family="Arial" font-size="13px" font-style="italic" font-weight="bold" text-decoration="none" x="314.246826171875" y="275.5">AbstractPlayer</text></g></g><g transform="translate(-142,-102) scale(1,1)"><path fill="none" stroke="#000000" d="M 356 255 L 354.3157894736842 199" stroke-miterlimit="10"/></g><g transform="translate(-142,-102) scale(1,1)"><path fill="none" stroke="#000000" d="M 355 375 L 356 301" stroke-miterlimit="10"/></g><g transform="translate(-142,-102) scale(1,1)"><path fill="#FFFFFF" stroke="none" d="M 364.1436250836913 321.43725447549826 L 356 301 L 347.30709129165905 321.2097337485789"/></g><g transform="translate(-142,-102) scale(1,1)"><path fill="none" stroke="#000000" d="M 364.1436250836913 321.43725447549826 L 356 301 L 347.30709129165905 321.2097337485789 L 364.1436250836913 321.43725447549826" stroke-miterlimit="10"/></g></g></svg>