<svg version="1.1" xmlns="http://www.w3.org/2000/svg" xmlns:xlink="http://www.w3.org/1999/xlink" width="565" height="472"><defs/><g><g transform="translate(-78,-190) scale(1,1)"><rect fill="#C0C0C0" stroke="none" x="287" y="359" width="210" height="100" opacity="0.2"/></g><g transform="translate(-78,-190) scale(1,1)"><rect fill="#ffffff" stroke="none" x="280" y="352" width="210" height="100"/></g><g transform="translate(-78,-190) scale(1,1)"><path fill="none" stroke="#000000" d="M 280 352 L 490 352 L 490 452 L 280 452 L 280 352 Z Z" stroke-miterlimit="10"/></g><g transform="translate(-78,-190) scale(1,1)"><path fill="none" stroke="#000000" d="M 280 377 L 490 377" stroke-miterlimit="10"/></g><g transform="translate(-78,-190) scale(1,1)"><path fill="none" stroke="#000000" d="M 280 430 L 490 430" stroke-miterlimit="10"/></g><g transform="translate(-78,-190) scale(1,1)"><g><path fill="none" stroke="none"/><text fill="#000000" stroke="none" font-family="Arial" font-size="13px" font-style="normal" font-weight="bold" text-decoration="none" x="331" y="371.5">LauncherController</text></g></g><g transform="translate(-78,-190) scale(1,1)"><g><path fill="none" stroke="none"/><text fill="#000000" stroke="none" font-family="Arial" font-size="13px" font-style="normal" font-weight="normal" text-decoration="none" x="285" y="394.5">-launcherModel: LauncherModel</text></g></g><g transform="translate(-78,-190) scale(1,1)"><g><path fill="none" stroke="none"/><text fill="#000000" stroke="none" font-family="Arial" font-size="13px" font-style="normal" font-weight="normal" text-decoration="none" x="285" y="409.5">-launcherView: LauncherView</text></g></g><g transform="translate(-78,-190) scale(1,1)"><g><path fill="none" stroke="none"/><text fill="#000000" stroke="none" font-family="Arial" font-size="13px" font-style="normal" font-weight="normal" text-decoration="none" x="285" y="424.5">-configurations: Configurable[*]</text></g></g><g transform="translate(-78,-190) scale(1,1)"><g><path fill="none" stroke="none"/><text fill="#000000" stroke="none" font-family="Arial" font-size="13px" font-style="normal" font-weight="normal" text-decoration="none" x="285" y="447.5">+switchScene(EnumScenes)()</text></g></g><g transform="translate(-78,-190) scale(1,1)"><rect fill="#C0C0C0" stroke="none" x="535" y="615" width="105" height="44" opacity="0.2"/></g><g transform="translate(-78,-190) scale(1,1)"><rect fill="#ffffff" stroke="none" x="528" y="608" width="105" height="44"/></g><g transform="translate(-78,-190) scale(1,1)"><path fill="none" stroke="#000000" d="M 528 608 L 633 608 L 633 652 L 528 652 L 528 608 Z Z" stroke-miterlimit="10"/></g><g transform="translate(-78,-190) scale(1,1)"><path fill="none" stroke="#000000" d="M 528 633 L 633 633" stroke-miterlimit="10"/></g><g transform="translate(-78,-190) scale(1,1)"><path fill="none" stroke="#000000" d="M 528 643 L 633 643" stroke-miterlimit="10"/></g><g transform="translate(-78,-190) scale(1,1)"><g><path fill="none" stroke="none"/><text fill="#000000" stroke="none" font-family="Arial" font-size="13px" font-style="normal" font-weight="bold" text-decoration="none" x="536.5" y="627.5">LauncherModel</text></g></g><g transform="translate(-78,-190) scale(1,1)"><rect fill="#C0C0C0" stroke="none" x="95" y="615" width="104" height="44" opacity="0.2"/></g><g transform="translate(-78,-190) scale(1,1)"><rect fill="#ffffff" stroke="none" x="88" y="608" width="104" height="44"/></g><g transform="translate(-78,-190) scale(1,1)"><path fill="none" stroke="#000000" d="M 88 608 L 192 608 L 192 652 L 88 652 L 88 608 Z Z" stroke-miterlimit="10"/></g><g transform="translate(-78,-190) scale(1,1)"><path fill="none" stroke="#000000" d="M 88 633 L 192 633" stroke-miterlimit="10"/></g><g transform="translate(-78,-190) scale(1,1)"><path fill="none" stroke="#000000" d="M 88 643 L 192 643" stroke-miterlimit="10"/></g><g transform="translate(-78,-190) scale(1,1)"><g><path fill="none" stroke="none"/><text fill="#000000" stroke="none" font-family="Arial" font-size="13px" font-style="normal" font-weight="bold" text-decoration="none" x="99.5" y="627.5">LauncherView</text></g></g><g transform="translate(-78,-190) scale(1,1)"><path fill="none" stroke="#000000" d="M 165 607 L 330 453" stroke-miterlimit="10"/></g><g transform="translate(-78,-190) scale(1,1)"><path fill="none" stroke="#000000" d="M 560 607 L 429 453" stroke-miterlimit="10"/></g><g transform="translate(-78,-190) scale(1,1)"><rect fill="#C0C0C0" stroke="none" x="351" y="207" width="88" height="57" opacity="0.2"/></g><g transform="translate(-78,-190) scale(1,1)"><rect fill="#ffffff" stroke="none" x="344" y="200" width="88" height="57"/></g><g transform="translate(-78,-190) scale(1,1)"><path fill="none" stroke="#000000" d="M 344 200 L 432 200 L 432 257 L 344 257 L 344 200 Z Z" stroke-miterlimit="10"/></g><g transform="translate(-78,-190) scale(1,1)"><path fill="none" stroke="#000000" d="M 344 225 L 432 225" stroke-miterlimit="10"/></g><g transform="translate(-78,-190) scale(1,1)"><path fill="none" stroke="#000000" d="M 344 235 L 432 235" stroke-miterlimit="10"/></g><g transform="translate(-78,-190) scale(1,1)"><g><path fill="none" stroke="none"/><text fill="#000000" stroke="none" font-family="Arial" font-size="13px" font-style="normal" font-weight="bold" text-decoration="none" x="376.5" y="219.5">App</text></g></g><g transform="translate(-78,-190) scale(1,1)"><g><path fill="none" stroke="none"/><text fill="#000000" stroke="none" font-family="Arial" font-size="13px" font-style="normal" font-weight="normal" text-decoration="none" x="349" y="252.5">+main()</text></g></g><g transform="translate(-78,-190) scale(1,1)"><path fill="none" stroke="#000000" d="M 386 351 L 387 258" stroke-miterlimit="10"/></g></g></svg>